<svg width="34" height="33" viewBox="0 0 34 33" fill="none" xmlns="http://www.w3.org/2000/svg">
<mask id="mask0_20_2050" style="mask-type:luminance" maskUnits="userSpaceOnUse" x="0" y="0" width="34" height="33">
<path d="M0.296875 16.3031C0.296875 25.307 7.63051 32.6062 16.6768 32.6062C25.723 32.6062 33.0567 25.307 33.0567 16.3031C33.0567 7.29926 25.723 0 16.6768 0C7.63051 0 0.296875 7.29926 0.296875 16.3031Z" fill="white"/>
</mask>
<g mask="url(#mask0_20_2050)">
<mask id="mask1_20_2050" style="mask-type:luminance" maskUnits="userSpaceOnUse" x="-17" y="-17" width="67" height="66">
<path d="M16.6764 -16.3041L-16.0842 16.303L16.6764 48.9101L49.4371 16.303L16.6764 -16.3041Z" fill="white"/>
</mask>
<g mask="url(#mask1_20_2050)">
<path d="M49.4402 -16.3032H-16.083V48.9129H49.4402V-16.3032Z" fill="#A41D4C"/>
</g>
<mask id="mask2_20_2050" style="mask-type:luminance" maskUnits="userSpaceOnUse" x="-17" y="-17" width="67" height="66">
<path d="M16.6764 -16.3041L-16.0842 16.303L16.6764 48.9101L49.4371 16.303L16.6764 -16.3041Z" fill="white"/>
</mask>
<g mask="url(#mask2_20_2050)">
<path d="M30.9186 27.4672C37.5708 20.8462 40.8951 12.1689 40.8951 3.49162C40.8951 -0.847033 40.0622 -5.18568 38.4 -9.26595C37.5672 -11.3079 36.5288 -13.2816 35.2813 -15.1621C34.9712 -15.6322 34.6431 -16.0951 34.3078 -16.5544V-16.4145H-16.1984V28.0773H-16.6311C-16.4184 28.2782 -16.2057 28.4756 -15.9893 28.6694C-15.5567 29.057 -15.1204 29.4338 -14.6733 29.7926C-13.7827 30.5176 -12.8597 31.1886 -11.9151 31.8095C-10.0258 33.0511 -8.03914 34.0846 -5.9912 34.9136C-1.89171 36.568 2.46737 37.3969 6.82645 37.3969C15.5482 37.3969 24.2664 34.0882 30.9186 27.4672Z" fill="#A41D4C"/>
</g>
<mask id="mask3_20_2050" style="mask-type:luminance" maskUnits="userSpaceOnUse" x="-17" y="-17" width="67" height="66">
<path d="M16.6764 -16.3041L-16.0842 16.303L16.6764 48.9101L49.4371 16.303L16.6764 -16.3041Z" fill="white"/>
</mask>
<g mask="url(#mask3_20_2050)">
<path d="M30.0315 26.5809C36.435 20.2039 39.6403 11.8496 39.6403 3.49168C39.6403 -0.685482 38.8398 -4.86623 37.239 -8.79578C36.4386 -10.7623 35.4362 -12.6643 34.2356 -14.4766C33.6335 -15.3809 32.9845 -16.2637 32.285 -17.1178V-16.4144H-16.1985V26.5809H-16.3716C-3.55754 39.3349 17.2175 39.3349 30.0315 26.5809Z" fill="#A41D4C"/>
</g>
<mask id="mask4_20_2050" style="mask-type:luminance" maskUnits="userSpaceOnUse" x="-17" y="-17" width="67" height="66">
<path d="M16.6764 -16.3041L-16.0842 16.303L16.6764 48.9101L49.4371 16.303L16.6764 -16.3041Z" fill="white"/>
</mask>
<g mask="url(#mask4_20_2050)">
<path d="M29.141 25.6981C35.3029 19.5651 38.382 11.5266 38.382 3.49169C38.382 -0.527571 37.6104 -4.54683 36.0708 -8.32565C35.2993 -10.2169 34.3366 -12.0471 33.1828 -13.7875C32.6059 -14.6596 31.9786 -15.5065 31.3043 -16.3283C31.1349 -16.5328 30.9654 -16.7374 30.7887 -16.9384V-16.4108H-16.1985V24.5246H-16.6023C-16.2417 24.923 -15.8668 25.3141 -15.4846 25.6945C-3.16089 37.964 16.8209 37.964 29.141 25.6981Z" fill="#A41D4C"/>
</g>
<mask id="mask5_20_2050" style="mask-type:luminance" maskUnits="userSpaceOnUse" x="-17" y="-17" width="67" height="66">
<path d="M16.6764 -16.3041L-16.0842 16.303L16.6764 48.9101L49.4371 16.303L16.6764 -16.3041Z" fill="white"/>
</mask>
<g mask="url(#mask5_20_2050)">
<path d="M28.9608 25.515C35.0722 19.4323 38.1261 11.462 38.1261 3.48805C38.1261 -0.498915 37.3617 -4.48229 35.8329 -8.2324C35.0686 -10.1057 34.1131 -11.9215 32.9702 -13.6512C32.3969 -14.5161 31.7767 -15.3558 31.1097 -16.1704C30.9438 -16.375 30.7708 -16.576 30.5977 -16.7769V-16.4181H-16.1984V24.3559H-16.4111C-16.0542 24.7507 -15.6828 25.1382 -15.3006 25.5186C-3.0779 37.6805 16.7381 37.6805 28.9608 25.515Z" fill="#A51E4C"/>
</g>
<mask id="mask6_20_2050" style="mask-type:luminance" maskUnits="userSpaceOnUse" x="-17" y="-17" width="67" height="66">
<path d="M16.6764 -16.3041L-16.0842 16.303L16.6764 48.9101L49.4371 16.303L16.6764 -16.3041Z" fill="white"/>
</mask>
<g mask="url(#mask6_20_2050)">
<path d="M28.777 25.3356C34.8379 19.3032 37.8665 11.3974 37.8665 3.49167C37.8665 -0.462992 37.1094 -4.41407 35.595 -8.13188C34.8379 -9.99079 33.8896 -11.7923 32.7539 -13.5041C32.1842 -14.3617 31.5713 -15.1943 30.9079 -16.0053C30.742 -16.2063 30.5725 -16.4073 30.4031 -16.6082V-16.4144H-16.1983V24.1837H-16.22C-15.8666 24.5748 -15.4989 24.9588 -15.1203 25.3356C-2.9949 37.4006 16.6552 37.4006 28.777 25.3356Z" fill="#A51F4C"/>
</g>
<mask id="mask7_20_2050" style="mask-type:luminance" maskUnits="userSpaceOnUse" x="-17" y="-17" width="67" height="66">
<path d="M16.6764 -16.3041L-16.0842 16.303L16.6764 48.9101L49.4371 16.303L16.6764 -16.3041Z" fill="white"/>
</mask>
<g mask="url(#mask7_20_2050)">
<path d="M28.5931 25.1526C34.6035 19.1704 37.6069 11.3292 37.6069 3.49168C37.6069 -0.427095 36.857 -4.34946 35.3535 -8.03498C34.6035 -9.87953 33.6625 -11.6631 32.5375 -13.3641C31.9751 -14.2146 31.3621 -15.04 30.7059 -15.8438C30.3778 -16.2458 30.0353 -16.6405 29.6856 -17.0281V-16.4144H-16.1984V23.4229H-16.5481C-16.3786 23.6203 -16.2056 23.8177 -16.0289 24.0114C-15.6756 24.399 -15.3114 24.7794 -14.9364 25.1526C-2.9156 37.1171 16.5759 37.1171 28.5931 25.1526Z" fill="#A6204C"/>
</g>
<mask id="mask8_20_2050" style="mask-type:luminance" maskUnits="userSpaceOnUse" x="-17" y="-17" width="67" height="66">
<path d="M16.6764 -16.3041L-16.0842 16.303L16.6764 48.9101L49.4371 16.303L16.6764 -16.3041Z" fill="white"/>
</mask>
<g mask="url(#mask8_20_2050)">
<path d="M28.4128 24.9732C34.3727 19.0412 37.3509 11.2682 37.3509 3.49167C37.3509 -0.394812 36.6045 -4.28129 35.1154 -7.94169C34.3691 -9.77189 33.4389 -11.5411 32.3211 -13.2241C31.7623 -14.0675 31.1566 -14.8857 30.504 -15.6824C30.1795 -16.0807 29.8405 -16.4719 29.4908 -16.8558V-16.4144H-15.8343V-16.8558C-16.184 -16.4719 -16.5193 -16.0807 -16.8474 -15.6824H-16.1984V22.6657H-16.8474C-16.1948 23.4624 -15.4989 24.2303 -14.7526 24.9732C-2.83273 36.8372 16.4929 36.8372 28.4128 24.9732Z" fill="#A6214B"/>
</g>
<mask id="mask9_20_2050" style="mask-type:luminance" maskUnits="userSpaceOnUse" x="-17" y="-17" width="67" height="66">
<path d="M16.6764 -16.3041L-16.0842 16.303L16.6764 48.9101L49.4371 16.303L16.6764 -16.3041Z" fill="white"/>
</mask>
<g mask="url(#mask9_20_2050)">
<path d="M28.2288 24.7901C34.1383 18.9084 37.0948 11.2 37.0948 3.49166C37.0948 -0.362524 36.3557 -4.21671 34.8774 -7.84481C34.1383 -9.65706 33.2153 -11.4155 32.1084 -13.0842C31.5531 -13.9204 30.9546 -14.7314 30.3092 -15.5209C29.9847 -15.9156 29.653 -16.3032 29.3033 -16.6836V-16.4144H-15.6432V-16.6836C-15.9894 -16.3032 -16.3247 -15.9156 -16.6492 -15.5209H-16.1985V22.5042H-16.6492C-16.0038 23.2937 -15.3115 24.0581 -14.5724 24.7901C-2.74987 36.5537 16.4099 36.5537 28.2288 24.7901Z" fill="#A7224B"/>
</g>
<mask id="mask10_20_2050" style="mask-type:luminance" maskUnits="userSpaceOnUse" x="-17" y="-17" width="67" height="66">
<path d="M16.6764 -16.3041L-16.0842 16.303L16.6764 48.9101L49.4371 16.303L16.6764 -16.3041Z" fill="white"/>
</mask>
<g mask="url(#mask10_20_2050)">
<path d="M28.0485 24.6107C33.9075 18.7756 36.8352 11.1354 36.8352 3.49163C36.8352 -0.330254 36.1033 -4.15214 34.6394 -7.74794C33.9075 -9.54584 32.9917 -11.2863 31.892 -12.9443C31.344 -13.7732 30.7491 -14.5807 30.1073 -15.3594C29.7864 -15.7506 29.4547 -16.1346 29.1122 -16.515V-16.4181H-15.4521V-16.515C-15.7947 -16.1381 -16.1264 -15.7506 -16.4473 -15.3594H-16.1985V22.3391H-16.4473C-15.8055 23.1214 -15.1204 23.8786 -14.3885 24.6071C-2.67055 36.2737 16.3306 36.2737 28.0485 24.6107Z" fill="#A8234B"/>
</g>
<mask id="mask11_20_2050" style="mask-type:luminance" maskUnits="userSpaceOnUse" x="-17" y="-17" width="67" height="66">
<path d="M16.6764 -16.3041L-16.0842 16.303L16.6764 48.9101L49.4371 16.303L16.6764 -16.3041Z" fill="white"/>
</mask>
<g mask="url(#mask11_20_2050)">
<path d="M27.8646 24.4277C33.6731 18.6464 36.5791 11.0672 36.5791 3.49164C36.5791 -0.297945 35.8544 -4.08753 34.4014 -7.65104C33.6767 -9.43459 32.7681 -11.1607 31.6792 -12.8007C31.1348 -13.6225 30.5435 -14.4228 29.9089 -15.1979C29.5916 -15.5855 29.2635 -15.9659 28.921 -16.3427C28.7515 -16.5293 28.5785 -16.7159 28.4018 -16.8989V-16.418H-14.7419V-16.8989C-14.9186 -16.7159 -15.0916 -16.5293 -15.2611 -16.3427C-15.6 -15.9695 -15.9317 -15.5855 -16.249 -15.1979H-16.1985V22.1776H-16.249C-15.6145 22.9528 -14.933 23.7028 -14.2083 24.4277C-2.58769 35.9902 16.2476 35.9902 27.8646 24.4277Z" fill="#A8244B"/>
</g>
<mask id="mask12_20_2050" style="mask-type:luminance" maskUnits="userSpaceOnUse" x="-17" y="-17" width="67" height="66">
<path d="M16.6764 -16.3041L-16.0842 16.303L16.6764 48.9101L49.4371 16.303L16.6764 -16.3041Z" fill="white"/>
</mask>
<g mask="url(#mask12_20_2050)">
<path d="M27.6844 24.2447C33.4424 18.5136 36.3232 11.0026 36.3232 3.48804C36.3232 -0.269249 35.6021 -4.02295 34.1635 -7.55775C33.4424 -9.32335 32.5447 -11.0351 31.463 -12.6644C30.9222 -13.479 30.3381 -14.2721 29.7071 -15.04C29.3934 -15.424 29.0653 -15.8008 28.73 -16.174C28.5605 -16.3606 28.3911 -16.5437 28.2144 -16.7267V-16.4217H-14.5543V-16.7267C-14.7274 -16.5437 -14.9005 -16.3606 -15.0699 -16.174C-15.4089 -15.8008 -15.7333 -15.424 -16.047 -15.04C-16.3607 -14.656 -16.6672 -14.2649 -16.9592 -13.8701H-16.1985V20.839H-16.9592C-16.6672 21.2338 -16.3643 21.625 -16.047 22.0089C-15.4161 22.7769 -14.7418 23.5233 -14.0243 24.2375C-2.50467 35.7103 16.1647 35.7103 27.6844 24.2447Z" fill="#A9254B"/>
</g>
<mask id="mask13_20_2050" style="mask-type:luminance" maskUnits="userSpaceOnUse" x="-17" y="-17" width="67" height="66">
<path d="M16.6764 -16.3041L-16.0842 16.303L16.6764 48.9101L49.4371 16.303L16.6764 -16.3041Z" fill="white"/>
</mask>
<g mask="url(#mask13_20_2050)">
<path d="M27.5004 24.0653C38.9155 12.7037 38.9155 -5.72032 27.5004 -17.0819V-16.4144H-13.8406V-17.0819C-14.5545 -16.3714 -15.2215 -15.6357 -15.8489 -14.8713C-16.1625 -14.4909 -16.4618 -14.1034 -16.7502 -13.7122H-16.195V20.6955H-16.7502C-16.4618 21.0867 -16.1589 21.4743 -15.8489 21.8547C-15.2251 22.6155 -14.5545 23.3547 -13.8406 24.0653C-2.42549 35.4269 16.0853 35.4269 27.5004 24.0653Z" fill="#A9264B"/>
</g>
<mask id="mask14_20_2050" style="mask-type:luminance" maskUnits="userSpaceOnUse" x="-17" y="-17" width="67" height="66">
<path d="M16.6764 -16.3041L-16.0842 16.303L16.6764 48.9101L49.4371 16.303L16.6764 -16.3041Z" fill="white"/>
</mask>
<g mask="url(#mask14_20_2050)">
<path d="M27.3201 23.8822C38.6343 12.6211 38.6343 -5.64142 27.3201 -16.9025V-16.4181H-13.6603V-16.9025C-14.3669 -16.1992 -15.0304 -15.4671 -15.6505 -14.7135C-15.9606 -14.3367 -16.2598 -13.9527 -16.5447 -13.5615H-16.1985V20.5412H-16.5447C-16.2562 20.9288 -15.9606 21.3127 -15.6505 21.6931C-15.0304 22.4467 -14.3669 23.1788 -13.6603 23.8822C-2.34251 35.1469 16.0024 35.1469 27.3201 23.8822Z" fill="#AA274A"/>
</g>
<mask id="mask15_20_2050" style="mask-type:luminance" maskUnits="userSpaceOnUse" x="-17" y="-17" width="67" height="66">
<path d="M16.6764 -16.3041L-16.0842 16.303L16.6764 48.9101L49.4371 16.303L16.6764 -16.3041Z" fill="white"/>
</mask>
<g mask="url(#mask15_20_2050)">
<path d="M27.1364 23.7028C38.3496 12.5422 38.3496 -5.55527 27.1364 -16.7195V-16.4144H-13.4763V-16.7195C-14.1757 -16.0233 -14.8356 -15.2984 -15.4485 -14.5484C-15.755 -14.1751 -16.0506 -13.7948 -16.3354 -13.4072H-16.1984V20.3941H-16.3354C-16.0506 20.7781 -15.755 21.1585 -15.4485 21.5353C-14.8356 22.2853 -14.1793 23.0102 -13.4763 23.7064C-2.26308 34.8634 15.9196 34.8634 27.1364 23.7028Z" fill="#AB284A"/>
</g>
<mask id="mask16_20_2050" style="mask-type:luminance" maskUnits="userSpaceOnUse" x="-17" y="-17" width="67" height="66">
<path d="M16.6764 -16.3041L-16.0842 16.303L16.6764 48.9101L49.4371 16.303L16.6764 -16.3041Z" fill="white"/>
</mask>
<g mask="url(#mask16_20_2050)">
<path d="M26.9526 23.5198C38.0684 12.4561 38.0684 -5.47631 26.9526 -16.54V-16.418H-13.2923V-16.54C-14.6804 -15.1584 -15.8955 -13.6655 -16.9375 -12.0973H-16.1948V19.0735H-16.9375C-15.8955 20.6453 -14.6804 22.1346 -13.2923 23.5162C-2.18008 34.5835 15.8403 34.5835 26.9526 23.5198Z" fill="#AB294A"/>
</g>
<mask id="mask17_20_2050" style="mask-type:luminance" maskUnits="userSpaceOnUse" x="-17" y="-17" width="67" height="66">
<path d="M16.6764 -16.3041L-16.0842 16.303L16.6764 48.9101L49.4371 16.303L16.6764 -16.3041Z" fill="white"/>
</mask>
<g mask="url(#mask17_20_2050)">
<path d="M26.7722 23.3403C37.7871 12.3771 37.7871 -5.39379 26.7722 -16.357C26.5992 -16.5293 26.4261 -16.698 26.2494 -16.863V-16.418H-12.5893V-16.863C-12.766 -16.698 -12.9391 -16.5293 -13.1121 -16.357C-14.4894 -14.9862 -15.6937 -13.5113 -16.7249 -11.9538H-16.1948V18.9371H-16.7249C-15.6937 20.4946 -14.4894 21.9695 -13.1121 23.3403C-2.09723 34.3 15.7573 34.3 26.7722 23.3403Z" fill="#AC2A4A"/>
</g>
<mask id="mask18_20_2050" style="mask-type:luminance" maskUnits="userSpaceOnUse" x="-17" y="-17" width="67" height="66">
<path d="M16.6764 -16.3041L-16.0842 16.303L16.6764 48.9101L49.4371 16.303L16.6764 -16.3041Z" fill="white"/>
</mask>
<g mask="url(#mask18_20_2050)">
<path d="M26.5883 23.1573C37.5022 12.2945 37.5022 -5.31485 26.5883 -16.1776C26.2458 -16.5185 25.8997 -16.8451 25.5463 -17.1645V-16.4181H-11.8863V-17.1645C-12.2396 -16.8451 -12.5893 -16.5185 -12.9283 -16.1776C-14.2911 -14.8211 -15.4846 -13.357 -16.5085 -11.8138H-16.1949V18.7935H-16.5085C-15.4846 20.3366 -14.2911 21.7972 -12.9283 23.1573C-2.01793 34.0201 15.678 34.0201 26.5883 23.1573Z" fill="#AC2B4A"/>
</g>
<mask id="mask19_20_2050" style="mask-type:luminance" maskUnits="userSpaceOnUse" x="-17" y="-17" width="67" height="66">
<path d="M16.6764 -16.3041L-16.0842 16.303L16.6764 48.9101L49.4371 16.303L16.6764 -16.3041Z" fill="white"/>
</mask>
<g mask="url(#mask19_20_2050)">
<path d="M26.408 22.9743C37.221 12.212 37.221 -5.2359 26.408 -15.9946C26.0691 -16.3319 25.7266 -16.6549 25.3768 -16.9707V-16.4145H-11.7132V-16.9707C-12.063 -16.6549 -12.4091 -16.3283 -12.7444 -15.9946C-14.0965 -14.6489 -15.2791 -13.1991 -16.2922 -11.6703H-16.1949V18.6536H-16.2922C-15.2791 20.1823 -14.0965 21.6321 -12.7444 22.9779C-1.93503 33.7366 15.595 33.7366 26.408 22.9743Z" fill="#AD2C4A"/>
</g>
<mask id="mask20_20_2050" style="mask-type:luminance" maskUnits="userSpaceOnUse" x="-17" y="-17" width="67" height="66">
<path d="M16.6764 -16.3041L-16.0842 16.303L16.6764 48.9101L49.4371 16.303L16.6764 -16.3041Z" fill="white"/>
</mask>
<g mask="url(#mask20_20_2050)">
<path d="M26.224 22.7949C36.936 12.1331 36.936 -5.14972 26.224 -15.8115C25.8887 -16.1453 25.5497 -16.4682 25.2 -16.7805V-16.4144H-11.5403V-16.7805C-11.8864 -16.4682 -12.229 -16.1453 -12.5643 -15.8115C-13.9019 -14.4801 -15.0737 -13.0411 -16.0797 -11.5303C-16.3321 -11.1535 -16.57 -10.7695 -16.8008 -10.3819H-16.1987V17.3617H-16.8008C-16.57 17.7493 -16.3285 18.1333 -16.0797 18.5101C-15.0737 20.0245 -13.9055 21.4599 -12.5643 22.7913C-1.85227 33.4567 15.5119 33.4567 26.224 22.7949Z" fill="#AD2D49"/>
</g>
<mask id="mask21_20_2050" style="mask-type:luminance" maskUnits="userSpaceOnUse" x="-17" y="-17" width="67" height="66">
<path d="M16.6764 -16.3041L-16.0842 16.303L16.6764 48.9101L49.4371 16.303L16.6764 -16.3041Z" fill="white"/>
</mask>
<g mask="url(#mask21_20_2050)">
<path d="M26.0438 22.6119C36.6548 12.0506 36.6548 -5.07078 26.0438 -15.6321C25.7121 -15.9623 25.3731 -16.2816 25.0306 -16.5903V-16.418H-11.3672V-16.5903C-11.7097 -16.2816 -12.0486 -15.9623 -12.3803 -15.6321C-13.7071 -14.3115 -14.8681 -12.8904 -15.8633 -11.3904C-16.112 -11.0171 -16.35 -10.6367 -16.5771 -10.2528H-16.195V17.2289H-16.5771C-16.35 17.6129 -16.112 17.9933 -15.8633 18.3665C-14.8681 19.8666 -13.7071 21.2877 -12.3803 22.6083C-1.77286 33.1732 15.4327 33.1732 26.0438 22.6119Z" fill="#AE2E49"/>
</g>
<mask id="mask22_20_2050" style="mask-type:luminance" maskUnits="userSpaceOnUse" x="-17" y="-17" width="67" height="66">
<path d="M16.6764 -16.3041L-16.0842 16.303L16.6764 48.9101L49.4371 16.303L16.6764 -16.3041Z" fill="white"/>
</mask>
<g mask="url(#mask22_20_2050)">
<path d="M25.86 22.4324C36.3702 11.9716 36.3702 -4.98824 25.86 -15.4491C25.5319 -15.7756 25.1966 -16.0914 24.8577 -16.4001C24.6882 -16.5544 24.5152 -16.7051 24.3421 -16.8522V-16.418H-10.6784V-16.8522C-10.8514 -16.7051 -11.0245 -16.5544 -11.194 -16.4001C-11.5365 -16.095 -11.8682 -15.7756 -12.1963 -15.4491C-13.5087 -14.1428 -14.6589 -12.7325 -15.6432 -11.2468C-15.8883 -10.8772 -16.1263 -10.5004 -16.3499 -10.12H-16.1912V17.1033H-16.3499C-16.1227 17.4837 -15.8883 17.8605 -15.6432 18.2302C-14.6589 19.7159 -13.5087 21.1262 -12.1963 22.4324C-1.68978 32.8933 15.3499 32.8933 25.86 22.4324Z" fill="#AF2F49"/>
</g>
<mask id="mask23_20_2050" style="mask-type:luminance" maskUnits="userSpaceOnUse" x="-17" y="-17" width="67" height="66">
<path d="M16.6764 -16.3041L-16.0842 16.303L16.6764 48.9101L49.4371 16.303L16.6764 -16.3041Z" fill="white"/>
</mask>
<g mask="url(#mask23_20_2050)">
<path d="M25.6761 22.2494C36.0853 11.889 36.0853 -4.90932 25.6761 -15.2697C25.0271 -15.9156 24.3493 -16.5257 23.6534 -17.0891V-16.4145H-9.99334V-17.0891C-10.6928 -16.5221 -11.367 -15.9156 -12.016 -15.2697C-13.3176 -13.9742 -14.457 -12.5782 -15.4305 -11.1069C-15.9172 -10.3712 -16.3643 -9.61759 -16.7717 -8.84604H-16.1948V15.8293H-16.7717C-16.3643 16.6009 -15.9172 17.3545 -15.4305 18.0902C-14.4534 19.5615 -13.3176 20.9575 -12.016 22.253C-1.60688 32.6098 15.267 32.6098 25.6761 22.2494Z" fill="#AF3049"/>
</g>
<mask id="mask24_20_2050" style="mask-type:luminance" maskUnits="userSpaceOnUse" x="-17" y="-17" width="67" height="66">
<path d="M16.6764 -16.3041L-16.0842 16.303L16.6764 48.9101L49.4371 16.303L16.6764 -16.3041Z" fill="white"/>
</mask>
<g mask="url(#mask24_20_2050)">
<path d="M25.4959 22.07C35.8041 11.8101 35.8041 -4.82677 25.4959 -15.0866C24.8506 -15.729 24.1835 -16.3283 23.4913 -16.8917V-16.418H-9.831V-16.8917C-10.5233 -16.3319 -11.1903 -15.729 -11.8357 -15.0866C-13.1228 -13.8055 -14.2514 -12.4203 -15.2177 -10.9669C-15.7008 -10.2384 -16.1443 -9.49198 -16.5481 -8.7276H-16.1984V15.7073H-16.5481C-16.1443 16.4717 -15.7008 17.2182 -15.2177 17.9466C-14.2514 19.4036 -13.1228 20.7853 -11.8357 22.0664C-1.52747 32.3299 15.1877 32.3299 25.4959 22.07Z" fill="#B03149"/>
</g>
<mask id="mask25_20_2050" style="mask-type:luminance" maskUnits="userSpaceOnUse" x="-17" y="-17" width="67" height="66">
<path d="M16.6764 -16.3041L-16.0842 16.303L16.6764 48.9101L49.4371 16.303L16.6764 -16.3041Z" fill="white"/>
</mask>
<g mask="url(#mask25_20_2050)">
<path d="M25.312 21.887C35.5192 11.7276 35.5192 -4.74421 25.312 -14.9072C24.6738 -15.5424 24.0104 -16.1381 23.3253 -16.6943V-16.418H-9.66885V-16.6943C-10.3539 -16.1381 -11.0173 -15.5424 -11.6555 -14.9072C-12.9318 -13.6368 -14.0496 -12.2696 -15.005 -10.8269C-15.4846 -10.1056 -15.9208 -9.36636 -16.321 -8.60916H-16.1985V15.5889H-16.321C-15.9208 16.3425 -15.4846 17.0854 -15.005 17.8067C-14.0496 19.2493 -12.9318 20.6166 -11.6555 21.887C-1.44464 32.0464 15.1047 32.0464 25.312 21.887Z" fill="#B03249"/>
</g>
<mask id="mask26_20_2050" style="mask-type:luminance" maskUnits="userSpaceOnUse" x="-17" y="-17" width="67" height="66">
<path d="M16.6764 -16.3041L-16.0842 16.303L16.6764 48.9101L49.4371 16.303L16.6764 -16.3041Z" fill="white"/>
</mask>
<g mask="url(#mask26_20_2050)">
<path d="M25.1317 21.7039C35.238 11.645 35.238 -4.6653 25.1317 -14.7242C24.5007 -15.3522 23.8445 -15.9408 23.1667 -16.4934V-16.418H-9.50302V-16.4934C-10.1809 -15.9443 -10.8371 -15.3522 -11.468 -14.7242C-12.73 -13.4682 -13.8369 -12.1117 -14.7851 -10.6834C-15.2574 -9.96929 -15.6937 -9.23721 -16.0867 -8.48719C-16.285 -8.11397 -16.4725 -7.73716 -16.6492 -7.35318H-16.1949V14.3401H-16.6492C-16.4725 14.7205 -16.285 15.0973 -16.0867 15.4741C-15.6901 16.2205 -15.2574 16.9526 -14.7851 17.6703C-13.8369 19.0986 -12.7336 20.4551 -11.468 21.7111C-1.36174 31.7664 15.0218 31.7664 25.1317 21.7039Z" fill="#B13349"/>
</g>
<mask id="mask27_20_2050" style="mask-type:luminance" maskUnits="userSpaceOnUse" x="-17" y="-17" width="67" height="66">
<path d="M16.6764 -16.3041L-16.0842 16.303L16.6764 48.9101L49.4371 16.303L16.6764 -16.3041Z" fill="white"/>
</mask>
<g mask="url(#mask27_20_2050)">
<path d="M24.9478 21.5245C34.9531 11.5661 34.9531 -4.58273 24.9478 -14.5412C24.324 -15.162 23.6714 -15.7469 23.0008 -16.2924C22.6655 -16.5651 22.3229 -16.8271 21.9804 -17.0819V-16.418H-8.32044V-17.0819C-8.66657 -16.8307 -9.00549 -16.5651 -9.3408 -16.2924C-10.0114 -15.7469 -10.6604 -15.1656 -11.2878 -14.5412C-13.79 -12.0542 -15.6649 -9.17617 -16.916 -6.10789H-16.1949V13.0841H-16.916C-15.6649 16.1524 -13.79 19.0304 -11.2878 21.5209C-1.28245 31.483 14.9424 31.483 24.9478 21.5245Z" fill="#B23448"/>
</g>
<mask id="mask28_20_2050" style="mask-type:luminance" maskUnits="userSpaceOnUse" x="-17" y="-17" width="67" height="66">
<path d="M16.6764 -16.3041L-16.0842 16.303L16.6764 48.9101L49.4371 16.303L16.6764 -16.3041Z" fill="white"/>
</mask>
<g mask="url(#mask28_20_2050)">
<path d="M24.7676 21.3415C34.672 11.4835 34.672 -4.50379 24.7676 -14.3617C24.1475 -14.979 23.5057 -15.5568 22.8423 -16.095C22.5105 -16.3642 22.1716 -16.6262 21.8291 -16.8738V-16.4144H-8.16527V-16.8738C-8.5078 -16.6226 -8.84311 -16.3642 -9.17843 -16.095C-9.84184 -15.5568 -10.4872 -14.979 -11.1038 -14.3617C-13.5808 -11.8964 -15.4376 -9.05058 -16.6743 -6.01101H-16.1948V12.9908H-16.6743C-15.4376 16.0303 -13.5772 18.8761 -11.1038 21.3415C-1.1994 31.203 14.8596 31.203 24.7676 21.3415Z" fill="#B23548"/>
</g>
<mask id="mask29_20_2050" style="mask-type:luminance" maskUnits="userSpaceOnUse" x="-17" y="-17" width="67" height="66">
<path d="M16.6764 -16.3041L-16.0842 16.303L16.6764 48.9101L49.4371 16.303L16.6764 -16.3041Z" fill="white"/>
</mask>
<g mask="url(#mask29_20_2050)">
<path d="M24.5837 21.1621C34.3871 11.4046 34.3871 -4.42126 24.5837 -14.1787C23.9707 -14.7888 23.3326 -15.3594 22.6764 -15.8941C22.3483 -16.1597 22.0129 -16.418 21.674 -16.6656V-16.4144H-8.01749V-16.6656C-8.35641 -16.418 -8.69172 -16.1597 -9.01983 -15.8941C-9.67603 -15.3594 -10.3142 -14.7888 -10.9271 -14.1787C-13.3789 -11.7385 -15.2177 -8.9214 -16.4436 -5.91054H-16.202V12.8939H-16.4436C-15.2177 15.9011 -13.3789 18.7218 -10.9271 21.1621C-1.12012 30.9195 14.7803 30.9195 24.5837 21.1621Z" fill="#B33648"/>
</g>
<mask id="mask30_20_2050" style="mask-type:luminance" maskUnits="userSpaceOnUse" x="-17" y="-17" width="67" height="66">
<path d="M16.6764 -16.3041L-16.0842 16.303L16.6764 48.9101L49.4371 16.303L16.6764 -16.3041Z" fill="white"/>
</mask>
<g mask="url(#mask30_20_2050)">
<path d="M24.3997 20.9791C34.1058 11.3185 34.1058 -4.33869 24.3997 -13.9993C23.1882 -15.2051 21.8794 -16.2637 20.5021 -17.168V-16.418H-6.84581V-17.168C-8.22312 -16.2637 -9.53193 -15.2051 -10.7434 -13.9993C-13.1699 -11.5841 -14.9907 -8.79577 -16.2021 -5.81721H-16.1985V12.797H-16.2021C-14.9907 15.7755 -13.1699 18.5639 -10.7434 20.9791C-1.0373 30.6396 14.6972 30.6396 24.3997 20.9791Z" fill="#B33748"/>
</g>
<mask id="mask31_20_2050" style="mask-type:luminance" maskUnits="userSpaceOnUse" x="-17" y="-17" width="67" height="66">
<path d="M16.6764 -16.3041L-16.0842 16.303L16.6764 48.9101L49.4371 16.303L16.6764 -16.3041Z" fill="white"/>
</mask>
<g mask="url(#mask31_20_2050)">
<path d="M24.2194 20.7996C33.8245 11.2395 33.8245 -4.2562 24.2194 -13.8163C23.0188 -15.0113 21.7244 -16.0556 20.3615 -16.9528V-16.4145H-6.70159V-16.9528C-8.06447 -16.0556 -9.35886 -15.0113 -10.5595 -13.8163C-12.9608 -11.4263 -14.7599 -8.66662 -15.9606 -5.72036C-16.2598 -4.98469 -16.523 -4.23467 -16.7466 -3.47747H-16.1949V10.4607H-16.7466C-16.523 11.2179 -16.2598 11.9644 -15.9606 12.7036C-14.7599 15.6499 -12.9608 18.4096 -10.5595 20.7996C-0.954377 30.3561 14.6143 30.3561 24.2194 20.7996Z" fill="#B43848"/>
</g>
<mask id="mask32_20_2050" style="mask-type:luminance" maskUnits="userSpaceOnUse" x="-17" y="-17" width="67" height="66">
<path d="M16.6764 -16.3041L-16.0842 16.303L16.6764 48.9101L49.4371 16.303L16.6764 -16.3041Z" fill="white"/>
</mask>
<g mask="url(#mask32_20_2050)">
<path d="M24.0357 20.6166C33.5398 11.1569 33.5398 -4.17725 24.0357 -13.6369C22.8494 -14.8175 21.5659 -15.8546 20.2174 -16.741V-16.4181H-6.56084V-16.741C-7.90931 -15.8546 -9.18927 -14.8211 -10.3791 -13.6369C-12.7551 -11.272 -14.5363 -8.54102 -15.7261 -5.62347C-16.0217 -4.89498 -16.2813 -4.15572 -16.5049 -3.4057H-16.1984V10.3854H-16.5049C-16.2813 11.1354 -16.0217 11.8747 -15.7261 12.6032C-14.5399 15.5171 -12.7551 18.2517 -10.3791 20.6166C-0.874927 30.0762 14.5351 30.0762 24.0357 20.6166Z" fill="#B53948"/>
</g>
<mask id="mask33_20_2050" style="mask-type:luminance" maskUnits="userSpaceOnUse" x="-17" y="-17" width="67" height="66">
<path d="M16.6764 -16.3041L-16.0842 16.303L16.6764 48.9101L49.4371 16.303L16.6764 -16.3041Z" fill="white"/>
</mask>
<g mask="url(#mask33_20_2050)">
<path d="M23.8555 20.4371C33.2587 11.078 33.2587 -4.0947 23.8555 -13.4538C22.6801 -14.6237 21.4146 -15.6465 20.0769 -16.5257V-16.418H-6.41649V-16.5257C-7.75054 -15.6501 -9.01968 -14.6237 -10.1951 -13.4538C-12.5459 -11.114 -14.309 -8.41181 -15.4844 -5.52656C-16.0721 -4.08393 -16.512 -2.59824 -16.8076 -1.08743H-16.1983V8.06715H-16.8076C-16.5156 9.57796 -16.0721 11.0637 -15.4844 12.5063C-14.309 15.3915 -12.5459 18.0938 -10.1951 20.4336C-0.79187 29.7927 14.4523 29.7927 23.8555 20.4371Z" fill="#B53A47"/>
</g>
<mask id="mask34_20_2050" style="mask-type:luminance" maskUnits="userSpaceOnUse" x="-17" y="-17" width="67" height="66">
<path d="M16.6764 -16.3041L-16.0842 16.303L16.6764 48.9101L49.4371 16.303L16.6764 -16.3041Z" fill="white"/>
</mask>
<g mask="url(#mask34_20_2050)">
<path d="M23.6715 20.2541C32.9738 10.9955 32.9738 -4.01576 23.6715 -13.2708C22.5106 -14.4264 21.2558 -15.4419 19.9362 -16.3104C19.6045 -16.5257 19.2728 -16.7339 18.9339 -16.9348V-16.4181H-5.27001V-16.9348C-5.60893 -16.7374 -5.94424 -16.5293 -6.27235 -16.3104C-7.59197 -15.4419 -8.84669 -14.43 -10.0077 -13.2708C-12.3332 -10.9562 -14.0783 -8.28264 -15.2393 -5.42968C-15.8198 -4.00141 -16.256 -2.53007 -16.5481 -1.0372H-16.1911V8.0169H-16.5481C-16.256 9.50977 -15.8198 10.9847 -15.2393 12.4094C-14.0783 15.2623 -12.3332 17.9359 -10.0077 20.2505C-0.709021 29.5128 14.3693 29.5128 23.6715 20.2541Z" fill="#B63B47"/>
</g>
<mask id="mask35_20_2050" style="mask-type:luminance" maskUnits="userSpaceOnUse" x="-17" y="-17" width="67" height="66">
<path d="M16.6764 -16.3041L-16.0842 16.303L16.6764 48.9101L49.4371 16.303L16.6764 -16.3041Z" fill="white"/>
</mask>
<g mask="url(#mask35_20_2050)">
<path d="M23.4911 20.0711C32.6924 10.913 32.6924 -3.93319 23.4911 -13.0914C22.3409 -14.2361 21.1006 -15.2374 19.7954 -16.095C19.4673 -16.3104 19.1392 -16.5149 18.8039 -16.7123V-16.4144H-5.14041V-16.7123C-5.47573 -16.5149 -5.80743 -16.3104 -6.13193 -16.095C-7.43713 -15.2374 -8.67743 -14.2361 -9.8276 -13.0914C-14.4319 -8.51227 -16.7322 -2.51209 -16.7322 3.49168C-16.7322 9.49545 -14.4319 15.4956 -9.8312 20.0747C-0.629898 29.2293 14.2898 29.2293 23.4911 20.0711Z" fill="#B63C47"/>
</g>
<mask id="mask36_20_2050" style="mask-type:luminance" maskUnits="userSpaceOnUse" x="-17" y="-17" width="67" height="66">
<path d="M16.6764 -16.3041L-16.0842 16.303L16.6764 48.9101L49.4371 16.303L16.6764 -16.3041Z" fill="white"/>
</mask>
<g mask="url(#mask36_20_2050)">
<path d="M23.3074 19.8917C32.4077 10.834 32.4077 -3.85065 23.3074 -12.9083C22.1716 -14.0388 20.9457 -15.0328 19.6514 -15.8797C19.006 -16.3032 18.3426 -16.6943 17.6647 -17.046V-16.4144H-4.00811V-17.046C-4.68595 -16.6907 -5.34576 -16.3032 -5.99475 -15.8797C-7.28553 -15.0292 -8.51141 -14.0388 -9.65076 -12.9083C-14.1973 -8.37949 -16.4724 -2.4439 -16.4724 3.49168C-16.4724 9.42727 -14.1973 15.3629 -9.64715 19.8917C-0.546803 28.9494 14.207 28.9494 23.3074 19.8917Z" fill="#B73D47"/>
</g>
<mask id="mask37_20_2050" style="mask-type:luminance" maskUnits="userSpaceOnUse" x="-17" y="-17" width="67" height="66">
<path d="M16.6764 -16.3041L-16.0842 16.303L16.6764 48.9101L49.4371 16.303L16.6764 -16.3041Z" fill="white"/>
</mask>
<g mask="url(#mask37_20_2050)">
<path d="M23.1233 19.7087C32.1227 10.7514 32.1227 -3.77172 23.1233 -12.7289C21.9984 -13.8486 20.787 -14.8283 19.507 -15.668C18.8688 -16.0879 18.2126 -16.4719 17.5456 -16.8235V-16.418H-3.88565V-16.8235C-4.55628 -16.4719 -5.20888 -16.0879 -5.84706 -15.668C-7.12342 -14.8283 -8.33848 -13.8486 -9.4634 -12.7289C-13.9667 -8.25032 -16.2166 -2.37933 -16.2166 3.49166C-16.2166 9.36265 -13.9667 15.2301 -9.46701 19.7122C-0.464009 28.6659 14.124 28.6659 23.1233 19.7087Z" fill="#B83E47"/>
</g>
<mask id="mask38_20_2050" style="mask-type:luminance" maskUnits="userSpaceOnUse" x="-17" y="-17" width="67" height="66">
<path d="M16.6764 -16.3041L-16.0842 16.303L16.6764 48.9101L49.4371 16.303L16.6764 -16.3041Z" fill="white"/>
</mask>
<g mask="url(#mask38_20_2050)">
<path d="M22.9432 19.5292C31.8417 10.6725 31.8417 -3.68918 22.9432 -12.5459C21.8291 -13.6548 20.6321 -14.6201 19.3702 -15.4527C18.7392 -15.869 18.0902 -16.2494 17.4304 -16.5939V-16.4144H-3.7665V-16.5939C-4.42632 -16.2494 -5.07531 -15.869 -5.70628 -15.4527C-6.96821 -14.6237 -8.16885 -13.6548 -9.27935 -12.5459C-13.7322 -8.11754 -15.9568 -2.31473 -15.9568 3.49166C-15.9568 9.29806 -13.7322 15.1009 -9.28296 19.5292C-0.384521 28.386 14.0448 28.386 22.9432 19.5292Z" fill="#B83F47"/>
</g>
<mask id="mask39_20_2050" style="mask-type:luminance" maskUnits="userSpaceOnUse" x="-17" y="-17" width="67" height="66">
<path d="M16.6764 -16.3041L-16.0842 16.303L16.6764 48.9101L49.4371 16.303L16.6764 -16.3041Z" fill="white"/>
</mask>
<g mask="url(#mask39_20_2050)">
<path d="M22.7593 19.3462C31.5568 10.59 31.5568 -3.61023 22.7593 -12.3665C21.6596 -13.461 20.4734 -14.4192 19.2259 -15.241C18.6021 -15.6501 17.9603 -16.0269 17.3077 -16.3714C16.9796 -16.5436 16.6515 -16.7051 16.3162 -16.8594V-16.4216H-2.65608V-16.8558C-2.98779 -16.7015 -3.3195 -16.54 -3.6476 -16.3678C-4.3002 -16.0269 -4.94198 -15.6501 -5.56574 -15.2374C-6.81325 -14.4156 -7.99947 -13.4574 -9.09915 -12.3629C-13.4979 -7.98477 -15.6973 -2.24656 -15.6973 3.49166C-15.6973 9.22987 -13.4979 14.9681 -9.09915 19.3462C-0.30167 28.1024 13.9618 28.1024 22.7593 19.3462Z" fill="#B94046"/>
</g>
<mask id="mask40_20_2050" style="mask-type:luminance" maskUnits="userSpaceOnUse" x="-17" y="-17" width="67" height="66">
<path d="M16.6764 -16.3041L-16.0842 16.303L16.6764 48.9101L49.4371 16.303L16.6764 -16.3041Z" fill="white"/>
</mask>
<g mask="url(#mask40_20_2050)">
<path d="M22.5789 19.1668C31.2754 10.511 31.2754 -3.52411 22.5789 -12.1835C20.4047 -14.3474 17.8917 -15.9695 15.2128 -17.0532V-16.418H-1.54932V-17.0532C-4.23183 -15.9695 -6.74127 -14.3474 -8.9154 -12.1835C-13.2673 -7.85558 -15.4414 -2.18196 -15.4414 3.49166C-15.4414 9.16527 -13.2673 14.8389 -8.91901 19.1668C-0.222482 27.8225 13.8823 27.8225 22.5789 19.1668Z" fill="#B94146"/>
</g>
<mask id="mask41_20_2050" style="mask-type:luminance" maskUnits="userSpaceOnUse" x="-17" y="-17" width="67" height="66">
<path d="M16.6764 -16.3041L-16.0842 16.303L16.6764 48.9101L49.4371 16.303L16.6764 -16.3041Z" fill="white"/>
</mask>
<g mask="url(#mask41_20_2050)">
<path d="M22.3951 18.9837C30.9907 10.4284 30.9907 -3.44518 22.3951 -12.0005C20.2462 -14.1393 17.762 -15.7434 15.1119 -16.8128V-16.4145H-1.45546V-16.8128C-4.10552 -15.7434 -6.58973 -14.1393 -8.73862 -12.0005C-13.0328 -7.72282 -15.1853 -2.11739 -15.1853 3.49163C-15.1853 9.10066 -13.0364 14.7061 -8.73862 18.9837C-0.139442 27.539 13.7995 27.539 22.3951 18.9837Z" fill="#BA4246"/>
</g>
<mask id="mask42_20_2050" style="mask-type:luminance" maskUnits="userSpaceOnUse" x="-17" y="-17" width="67" height="66">
<path d="M16.6764 -16.3041L-16.0842 16.303L16.6764 48.9101L49.4371 16.303L16.6764 -16.3041Z" fill="white"/>
</mask>
<g mask="url(#mask42_20_2050)">
<path d="M22.2147 18.8007C30.7094 10.3459 30.7094 -3.3662 22.2147 -11.821C20.0911 -13.9347 17.6357 -15.5209 15.0181 -16.5759V-16.4144H-1.35819V-16.5759C-3.9758 -15.5173 -6.43116 -13.9347 -8.55482 -11.821C-12.8021 -7.5936 -14.9258 -2.04917 -14.9258 3.49166C-14.9258 9.0325 -12.8021 14.5733 -8.55482 18.8043C-0.056591 27.2591 13.7165 27.2591 22.2147 18.8007Z" fill="#BB4346"/>
</g>
<mask id="mask43_20_2050" style="mask-type:luminance" maskUnits="userSpaceOnUse" x="-17" y="-17" width="67" height="66">
<path d="M16.6764 -16.3041L-16.0842 16.303L16.6764 48.9101L49.4371 16.303L16.6764 -16.3041Z" fill="white"/>
</mask>
<g mask="url(#mask43_20_2050)">
<path d="M22.0308 18.6213C30.4244 10.267 30.4244 -3.28363 22.0308 -11.6379C19.9324 -13.7265 17.5058 -15.2948 14.9207 -16.339C14.2753 -16.601 13.6155 -16.8271 12.9521 -17.0245V-16.4144H0.707703V-17.0245C0.0442858 -16.8271 -0.615525 -16.601 -1.26091 -16.339C-3.84968 -15.2948 -6.2726 -13.7265 -8.37101 -11.6379C-16.7647 -3.28363 -16.7647 10.267 -8.37101 18.6213C0.0226536 26.9757 13.6371 26.9757 22.0308 18.6213Z" fill="#BB4446"/>
</g>
<mask id="mask44_20_2050" style="mask-type:luminance" maskUnits="userSpaceOnUse" x="-17" y="-17" width="67" height="66">
<path d="M16.6764 -16.3041L-16.0842 16.303L16.6764 48.9101L49.4371 16.303L16.6764 -16.3041Z" fill="white"/>
</mask>
<g mask="url(#mask44_20_2050)">
<path d="M21.8506 18.4383C30.147 10.1809 30.147 -3.20469 21.8506 -11.4585C19.7775 -13.522 17.3798 -15.0687 14.8235 -16.1022C14.1853 -16.3606 13.5363 -16.5867 12.8765 -16.7805V-16.418H0.783549V-16.7805C0.127343 -16.5867 -0.521651 -16.3606 -1.16343 -16.1022C-3.71975 -15.0687 -6.11743 -13.522 -8.19061 -11.4585C-16.4869 -3.2011 -16.4869 10.1845 -8.19061 18.4383C0.10571 26.6921 13.5543 26.6957 21.8506 18.4383Z" fill="#BC4546"/>
</g>
<mask id="mask45_20_2050" style="mask-type:luminance" maskUnits="userSpaceOnUse" x="-17" y="-17" width="67" height="66">
<path d="M16.6764 -16.3041L-16.0842 16.303L16.6764 48.9101L49.4371 16.303L16.6764 -16.3041Z" fill="white"/>
</mask>
<g mask="url(#mask45_20_2050)">
<path d="M21.6667 18.2589C29.8621 10.1019 29.8621 -3.11856 21.6667 -11.2755C19.6188 -13.3138 17.25 -14.8426 14.7261 -15.8618C13.4642 -16.3714 12.159 -16.7553 10.8393 -17.0101V-16.4144H2.82426V-17.0101C1.50103 -16.7553 0.199434 -16.3714 -1.0625 -15.8618C-3.58997 -14.8426 -5.9552 -13.3138 -8.00314 -11.2755C-16.1985 -3.11856 -16.1985 10.1019 -8.00314 18.2589C0.192223 26.4158 13.4714 26.4122 21.6667 18.2589Z" fill="#BC4646"/>
</g>
<mask id="mask46_20_2050" style="mask-type:luminance" maskUnits="userSpaceOnUse" x="-17" y="-17" width="67" height="66">
<path d="M16.6764 -16.3041L-16.0842 16.303L16.6764 48.9101L49.4371 16.303L16.6764 -16.3041Z" fill="white"/>
</mask>
<g mask="url(#mask46_20_2050)">
<path d="M21.483 18.0759C29.5774 10.0194 29.5774 -3.03962 21.483 -11.0961C17.4376 -15.1225 12.1338 -17.1357 6.83011 -17.1357C1.52638 -17.1357 -3.77735 -15.1225 -7.82275 -11.0925C-15.9172 -3.03962 -15.9172 10.0194 -7.82275 18.0759C0.271655 26.1323 13.3922 26.1323 21.483 18.0759Z" fill="#BD4745"/>
</g>
<mask id="mask47_20_2050" style="mask-type:luminance" maskUnits="userSpaceOnUse" x="-17" y="-17" width="67" height="66">
<path d="M16.6764 -16.3041L-16.0842 16.303L16.6764 48.9101L49.4371 16.303L16.6764 -16.3041Z" fill="white"/>
</mask>
<g mask="url(#mask47_20_2050)">
<path d="M21.3026 17.8964C29.296 9.9404 29.296 -2.95712 21.3026 -10.9131C17.304 -14.8929 12.0688 -16.881 6.82997 -16.881C1.59114 -16.881 -3.64408 -14.8929 -7.64261 -10.9131C-15.6361 -2.95712 -15.6361 9.9404 -7.64261 17.8964C0.350843 25.8524 13.3091 25.8488 21.3026 17.8964Z" fill="#BD4845"/>
</g>
<mask id="mask48_20_2050" style="mask-type:luminance" maskUnits="userSpaceOnUse" x="-17" y="-17" width="67" height="66">
<path d="M16.6764 -16.3041L-16.0842 16.303L16.6764 48.9101L49.4371 16.303L16.6764 -16.3041Z" fill="white"/>
</mask>
<g mask="url(#mask48_20_2050)">
<path d="M21.1188 17.7134C29.0113 9.85791 29.0113 -2.87812 21.1188 -10.7336C17.1744 -14.6596 12.0005 -16.6226 6.83014 -16.6226C1.65982 -16.6226 -3.51411 -14.6596 -7.45856 -10.7336C-15.3511 -2.87812 -15.3511 9.85791 -7.45856 17.7134C0.433938 25.5689 13.2263 25.5689 21.1188 17.7134Z" fill="#BE4945"/>
</g>
<mask id="mask49_20_2050" style="mask-type:luminance" maskUnits="userSpaceOnUse" x="-17" y="-17" width="67" height="66">
<path d="M16.6764 -16.3041L-16.0842 16.303L16.6764 48.9101L49.4371 16.303L16.6764 -16.3041Z" fill="white"/>
</mask>
<g mask="url(#mask49_20_2050)">
<path d="M20.9384 17.5304C28.73 9.77534 28.73 -2.79921 20.9384 -10.5506C17.0445 -14.4264 11.9354 -16.3678 6.83001 -16.3678C1.72458 -16.3678 -3.38084 -14.4299 -7.27841 -10.5506C-15.07 -2.79562 -15.07 9.77892 -7.27841 17.5304C0.513128 25.2818 13.1469 25.2854 20.9384 17.5304Z" fill="#BF4A45"/>
</g>
<mask id="mask50_20_2050" style="mask-type:luminance" maskUnits="userSpaceOnUse" x="-17" y="-17" width="67" height="66">
<path d="M16.6764 -16.3041L-16.0842 16.303L16.6764 48.9101L49.4371 16.303L16.6764 -16.3041Z" fill="white"/>
</mask>
<g mask="url(#mask50_20_2050)">
<path d="M20.7545 17.3509C28.4451 9.69637 28.4451 -2.7131 20.7545 -10.3676C16.9074 -14.1967 11.8705 -16.1094 6.82993 -16.1094C1.78941 -16.1094 -3.25112 -14.1967 -7.09461 -10.3676C-14.7852 -2.7131 -14.7852 9.69637 -7.09461 17.3509C0.595979 25.0054 13.0639 25.0054 20.7545 17.3509Z" fill="#BF4B45"/>
</g>
<mask id="mask51_20_2050" style="mask-type:luminance" maskUnits="userSpaceOnUse" x="-17" y="-17" width="67" height="66">
<path d="M16.6764 -16.3041L-16.0842 16.303L16.6764 48.9101L49.4371 16.303L16.6764 -16.3041Z" fill="white"/>
</mask>
<g mask="url(#mask51_20_2050)">
<path d="M20.5743 17.1679C28.1639 9.61386 28.1639 -2.63412 20.5743 -10.1882C16.7777 -13.9634 11.8057 -15.8546 6.83004 -15.8546C1.85442 -15.8546 -3.1176 -13.9634 -6.91422 -10.1882C-14.5039 -2.63412 -14.5039 9.61386 -6.91422 17.1679C0.675411 24.722 12.9811 24.722 20.5743 17.1679Z" fill="#C04C45"/>
</g>
<mask id="mask52_20_2050" style="mask-type:luminance" maskUnits="userSpaceOnUse" x="-17" y="-17" width="67" height="66">
<path d="M16.6764 -16.3041L-16.0842 16.303L16.6764 48.9101L49.4371 16.303L16.6764 -16.3041Z" fill="white"/>
</mask>
<g mask="url(#mask52_20_2050)">
<path d="M20.3904 16.9885C27.879 9.53489 27.879 -2.5516 20.3904 -10.0052C16.6442 -13.7338 11.7371 -15.5963 6.82997 -15.5963C1.92285 -15.5963 -2.98427 -13.7338 -6.73042 -10.0052C-14.2191 -2.5516 -14.2191 9.53489 -6.73042 16.9885C0.758262 24.442 12.9017 24.442 20.3904 16.9885Z" fill="#C04D44"/>
</g>
<mask id="mask53_20_2050" style="mask-type:luminance" maskUnits="userSpaceOnUse" x="-17" y="-17" width="67" height="66">
<path d="M16.6764 -16.3041L-16.0842 16.303L16.6764 48.9101L49.4371 16.303L16.6764 -16.3041Z" fill="white"/>
</mask>
<g mask="url(#mask53_20_2050)">
<path d="M6.83006 22.3212C17.2783 22.3212 25.7482 13.8909 25.7482 3.49169C25.7482 -6.90757 17.2783 -15.3378 6.83006 -15.3378C-3.61817 -15.3378 -12.0881 -6.90757 -12.0881 3.49169C-12.0881 13.8909 -3.61817 22.3212 6.83006 22.3212Z" fill="#C14E44"/>
</g>
<mask id="mask54_20_2050" style="mask-type:luminance" maskUnits="userSpaceOnUse" x="-17" y="-17" width="67" height="66">
<path d="M16.6764 -16.3041L-16.0842 16.303L16.6764 48.9101L49.4371 16.303L16.6764 -16.3041Z" fill="white"/>
</mask>
<g mask="url(#mask54_20_2050)">
<path d="M6.83017 22.0664C17.137 22.0664 25.4924 13.7502 25.4924 3.49165C25.4924 -6.76688 17.137 -15.0831 6.83017 -15.0831C-3.47668 -15.0831 -11.832 -6.76688 -11.832 3.49165C-11.832 13.7502 -3.47668 22.0664 6.83017 22.0664Z" fill="#C24F44"/>
</g>
<mask id="mask55_20_2050" style="mask-type:luminance" maskUnits="userSpaceOnUse" x="-17" y="-17" width="67" height="66">
<path d="M16.6764 -16.3041L-16.0842 16.303L16.6764 48.9101L49.4371 16.303L16.6764 -16.3041Z" fill="white"/>
</mask>
<g mask="url(#mask55_20_2050)">
<path d="M6.8301 21.808C16.9936 21.808 25.2327 13.6075 25.2327 3.49163C25.2327 -6.6242 16.9936 -14.8247 6.8301 -14.8247C-3.33338 -14.8247 -11.5725 -6.6242 -11.5725 3.49163C-11.5725 13.6075 -3.33338 21.808 6.8301 21.808Z" fill="#C25044"/>
</g>
<mask id="mask56_20_2050" style="mask-type:luminance" maskUnits="userSpaceOnUse" x="-17" y="-17" width="67" height="66">
<path d="M16.6764 -16.3041L-16.0842 16.303L16.6764 48.9101L49.4371 16.303L16.6764 -16.3041Z" fill="white"/>
</mask>
<g mask="url(#mask56_20_2050)">
<path d="M6.82996 21.5532C16.8521 21.5532 24.9766 13.4668 24.9766 3.49166C24.9766 -6.48345 16.8521 -14.5699 6.82996 -14.5699C-3.19214 -14.5699 -11.3167 -6.48345 -11.3167 3.49166C-11.3167 13.4668 -3.19214 21.5532 6.82996 21.5532Z" fill="#C35144"/>
</g>
<mask id="mask57_20_2050" style="mask-type:luminance" maskUnits="userSpaceOnUse" x="-17" y="-17" width="67" height="66">
<path d="M16.6764 -16.3041L-16.0842 16.303L16.6764 48.9101L49.4371 16.303L16.6764 -16.3041Z" fill="white"/>
</mask>
<g mask="url(#mask57_20_2050)">
<path d="M6.82989 21.2948C16.7086 21.2948 24.7169 13.3241 24.7169 3.49165C24.7169 -6.34077 16.7086 -14.3115 6.82989 -14.3115C-3.04884 -14.3115 -11.0571 -6.34077 -11.0571 3.49165C-11.0571 13.3241 -3.04884 21.2948 6.82989 21.2948Z" fill="#C35244"/>
</g>
<mask id="mask58_20_2050" style="mask-type:luminance" maskUnits="userSpaceOnUse" x="-17" y="-17" width="67" height="66">
<path d="M16.6764 -16.3041L-16.0842 16.303L16.6764 48.9101L49.4371 16.303L16.6764 -16.3041Z" fill="white"/>
</mask>
<g mask="url(#mask58_20_2050)">
<path d="M6.83 21.0401C16.5673 21.0401 24.461 13.1834 24.461 3.49168C24.461 -6.20002 16.5673 -14.0567 6.83 -14.0567C-2.90735 -14.0567 -10.801 -6.20002 -10.801 3.49168C-10.801 13.1834 -2.90735 21.0401 6.83 21.0401Z" fill="#C45444"/>
</g>
<mask id="mask59_20_2050" style="mask-type:luminance" maskUnits="userSpaceOnUse" x="-17" y="-17" width="67" height="66">
<path d="M16.6764 -16.3041L-16.0842 16.303L16.6764 48.9101L49.4371 16.303L16.6764 -16.3041Z" fill="white"/>
</mask>
<g mask="url(#mask59_20_2050)">
<path d="M6.82992 20.7817C16.4239 20.7817 24.2013 13.0407 24.2013 3.49166C24.2013 -6.05735 16.4239 -13.7983 6.82992 -13.7983C-2.76405 -13.7983 -10.5415 -6.05735 -10.5415 3.49166C-10.5415 13.0407 -2.76405 20.7817 6.82992 20.7817Z" fill="#C55543"/>
</g>
<mask id="mask60_20_2050" style="mask-type:luminance" maskUnits="userSpaceOnUse" x="-17" y="-17" width="67" height="66">
<path d="M16.6764 -16.3041L-16.0842 16.303L16.6764 48.9101L49.4371 16.303L16.6764 -16.3041Z" fill="white"/>
</mask>
<g mask="url(#mask60_20_2050)">
<path d="M6.83003 20.5269C16.2826 20.5269 23.9455 12.9 23.9455 3.49169C23.9455 -5.9166 16.2826 -13.5435 6.83003 -13.5435C-2.62256 -13.5435 -10.2854 -5.9166 -10.2854 3.49169C-10.2854 12.9 -2.62256 20.5269 6.83003 20.5269Z" fill="#C55643"/>
</g>
<mask id="mask61_20_2050" style="mask-type:luminance" maskUnits="userSpaceOnUse" x="-17" y="-17" width="67" height="66">
<path d="M16.6764 -16.3041L-16.0842 16.303L16.6764 48.9101L49.4371 16.303L16.6764 -16.3041Z" fill="white"/>
</mask>
<g mask="url(#mask61_20_2050)">
<path d="M6.82995 20.2685C16.1392 20.2685 23.6858 12.7572 23.6858 3.49166C23.6858 -5.77392 16.1392 -13.2852 6.82995 -13.2852C-2.47926 -13.2852 -10.0259 -5.77392 -10.0259 3.49166C-10.0259 12.7572 -2.47926 20.2685 6.82995 20.2685Z" fill="#C65743"/>
</g>
<mask id="mask62_20_2050" style="mask-type:luminance" maskUnits="userSpaceOnUse" x="-17" y="-17" width="67" height="66">
<path d="M16.6764 -16.3041L-16.0842 16.303L16.6764 48.9101L49.4371 16.303L16.6764 -16.3041Z" fill="white"/>
</mask>
<g mask="url(#mask62_20_2050)">
<path d="M6.83007 20.0137C15.9979 20.0137 23.4299 12.6165 23.4299 3.49164C23.4299 -5.63323 15.9979 -13.0304 6.83007 -13.0304C-2.33777 -13.0304 -9.76978 -5.63323 -9.76978 3.49164C-9.76978 12.6165 -2.33777 20.0137 6.83007 20.0137Z" fill="#C65843"/>
</g>
<mask id="mask63_20_2050" style="mask-type:luminance" maskUnits="userSpaceOnUse" x="-17" y="-17" width="67" height="66">
<path d="M16.6764 -16.3041L-16.0842 16.303L16.6764 48.9101L49.4371 16.303L16.6764 -16.3041Z" fill="white"/>
</mask>
<g mask="url(#mask63_20_2050)">
<path d="M6.82999 19.7553C15.8545 19.7553 23.1702 12.4738 23.1702 3.49168C23.1702 -5.49049 15.8545 -12.772 6.82999 -12.772C-2.19448 -12.772 -9.51025 -5.49049 -9.51025 3.49168C-9.51025 12.4738 -2.19448 19.7553 6.82999 19.7553Z" fill="#C75943"/>
</g>
<mask id="mask64_20_2050" style="mask-type:luminance" maskUnits="userSpaceOnUse" x="-17" y="-17" width="67" height="66">
<path d="M16.6764 -16.3041L-16.0842 16.303L16.6764 48.9101L49.4371 16.303L16.6764 -16.3041Z" fill="white"/>
</mask>
<g mask="url(#mask64_20_2050)">
<path d="M6.8301 19.5005C15.7132 19.5005 22.9144 12.3331 22.9144 3.49165C22.9144 -5.3498 15.7132 -12.5172 6.8301 -12.5172C-2.05299 -12.5172 -9.25415 -5.3498 -9.25415 3.49165C-9.25415 12.3331 -2.05299 19.5005 6.8301 19.5005Z" fill="#C85A43"/>
</g>
<mask id="mask65_20_2050" style="mask-type:luminance" maskUnits="userSpaceOnUse" x="-17" y="-17" width="67" height="66">
<path d="M16.6764 -16.3041L-16.0842 16.303L16.6764 48.9101L49.4371 16.303L16.6764 -16.3041Z" fill="white"/>
</mask>
<g mask="url(#mask65_20_2050)">
<path d="M6.83002 19.2422C15.5697 19.2422 22.6547 12.1904 22.6547 3.49169C22.6547 -5.20706 15.5697 -12.2588 6.83002 -12.2588C-1.90969 -12.2588 -8.99463 -5.20706 -8.99463 3.49169C-8.99463 12.1904 -1.90969 19.2422 6.83002 19.2422Z" fill="#C85B42"/>
</g>
<mask id="mask66_20_2050" style="mask-type:luminance" maskUnits="userSpaceOnUse" x="-17" y="-17" width="67" height="66">
<path d="M16.6764 -16.3041L-16.0842 16.303L16.6764 48.9101L49.4371 16.303L16.6764 -16.3041Z" fill="white"/>
</mask>
<g mask="url(#mask66_20_2050)">
<path d="M6.82989 18.9873C15.4282 18.9873 22.3986 12.0497 22.3986 3.49166C22.3986 -5.06637 15.4282 -12.004 6.82989 -12.004C-1.76844 -12.004 -8.73877 -5.06637 -8.73877 3.49166C-8.73877 12.0497 -1.76844 18.9873 6.82989 18.9873Z" fill="#C95C42"/>
</g>
<mask id="mask67_20_2050" style="mask-type:luminance" maskUnits="userSpaceOnUse" x="-17" y="-17" width="67" height="66">
<path d="M16.6764 -16.3041L-16.0842 16.303L16.6764 48.9101L49.4371 16.303L16.6764 -16.3041Z" fill="white"/>
</mask>
<g mask="url(#mask67_20_2050)">
<path d="M6.83006 18.7289C15.285 18.7289 22.1391 11.907 22.1391 3.49164C22.1391 -4.92369 15.285 -11.7457 6.83006 -11.7457C-1.6249 -11.7457 -8.479 -4.92369 -8.479 3.49164C-8.479 11.907 -1.6249 18.7289 6.83006 18.7289Z" fill="#C95D42"/>
</g>
<mask id="mask68_20_2050" style="mask-type:luminance" maskUnits="userSpaceOnUse" x="-17" y="-17" width="67" height="66">
<path d="M16.6764 -16.3041L-16.0842 16.303L16.6764 48.9101L49.4371 16.303L16.6764 -16.3041Z" fill="white"/>
</mask>
<g mask="url(#mask68_20_2050)">
<path d="M6.82993 18.4742C15.1435 18.4742 21.883 11.7663 21.883 3.49166C21.883 -4.78295 15.1435 -11.4908 6.82993 -11.4908C-1.48366 -11.4908 -8.22314 -4.78295 -8.22314 3.49166C-8.22314 11.7663 -1.48366 18.4742 6.82993 18.4742Z" fill="#CA5E42"/>
</g>
<mask id="mask69_20_2050" style="mask-type:luminance" maskUnits="userSpaceOnUse" x="-17" y="-17" width="67" height="66">
<path d="M16.6764 -16.3041L-16.0842 16.303L16.6764 48.9101L49.4371 16.303L16.6764 -16.3041Z" fill="white"/>
</mask>
<g mask="url(#mask69_20_2050)">
<path d="M6.83009 18.2158C15.0003 18.2158 21.6236 11.6236 21.6236 3.49164C21.6236 -4.64027 15.0003 -11.2325 6.83009 -11.2325C-1.34012 -11.2325 -7.96338 -4.64027 -7.96338 3.49164C-7.96338 11.6236 -1.34012 18.2158 6.83009 18.2158Z" fill="#CB5F42"/>
</g>
<mask id="mask70_20_2050" style="mask-type:luminance" maskUnits="userSpaceOnUse" x="-17" y="-17" width="67" height="66">
<path d="M16.6764 -16.3041L-16.0842 16.303L16.6764 48.9101L49.4371 16.303L16.6764 -16.3041Z" fill="white"/>
</mask>
<g mask="url(#mask70_20_2050)">
<path d="M6.83021 17.961C14.859 17.961 21.3677 11.4829 21.3677 3.49168C21.3677 -4.49952 14.859 -10.9777 6.83021 -10.9777C-1.19862 -10.9777 -7.70728 -4.49952 -7.70728 3.49168C-7.70728 11.4829 -1.19862 17.961 6.83021 17.961Z" fill="#CB6042"/>
</g>
<mask id="mask71_20_2050" style="mask-type:luminance" maskUnits="userSpaceOnUse" x="-17" y="-17" width="67" height="66">
<path d="M16.6764 -16.3041L-16.0842 16.303L16.6764 48.9101L49.4371 16.303L16.6764 -16.3041Z" fill="white"/>
</mask>
<g mask="url(#mask71_20_2050)">
<path d="M6.83013 17.7026C14.7156 17.7026 21.108 11.3402 21.108 3.49166C21.108 -4.35684 14.7156 -10.7193 6.83013 -10.7193C-1.05533 -10.7193 -7.44775 -4.35684 -7.44775 3.49166C-7.44775 11.3402 -1.05533 17.7026 6.83013 17.7026Z" fill="#CC6141"/>
</g>
<mask id="mask72_20_2050" style="mask-type:luminance" maskUnits="userSpaceOnUse" x="-17" y="-17" width="67" height="66">
<path d="M16.6764 -16.3041L-16.0842 16.303L16.6764 48.9101L49.4371 16.303L16.6764 -16.3041Z" fill="white"/>
</mask>
<g mask="url(#mask72_20_2050)">
<path d="M6.83 17.4478C14.5741 17.4478 20.8519 11.1995 20.8519 3.49168C20.8519 -4.21609 14.5741 -10.4645 6.83 -10.4645C-0.91408 -10.4645 -7.19189 -4.21609 -7.19189 3.49168C-7.19189 11.1995 -0.91408 17.4478 6.83 17.4478Z" fill="#CC6241"/>
</g>
<mask id="mask73_20_2050" style="mask-type:luminance" maskUnits="userSpaceOnUse" x="-17" y="-17" width="67" height="66">
<path d="M16.6764 -16.3041L-16.0842 16.303L16.6764 48.9101L49.4371 16.303L16.6764 -16.3041Z" fill="white"/>
</mask>
<g mask="url(#mask73_20_2050)">
<path d="M6.83017 17.1894C14.4309 17.1894 20.5925 11.0567 20.5925 3.49167C20.5925 -4.07341 14.4309 -10.2061 6.83017 -10.2061C-0.770539 -10.2061 -6.93213 -4.07341 -6.93213 3.49167C-6.93213 11.0567 -0.770539 17.1894 6.83017 17.1894Z" fill="#CD6341"/>
</g>
<mask id="mask74_20_2050" style="mask-type:luminance" maskUnits="userSpaceOnUse" x="-17" y="-17" width="67" height="66">
<path d="M16.6764 -16.3041L-16.0842 16.303L16.6764 48.9101L49.4371 16.303L16.6764 -16.3041Z" fill="white"/>
</mask>
<g mask="url(#mask74_20_2050)">
<path d="M6.83003 16.9346C14.2894 16.9346 20.3363 10.916 20.3363 3.49163C20.3363 -3.93272 14.2894 -9.95135 6.83003 -9.95135C-0.629292 -9.95135 -6.67627 -3.93272 -6.67627 3.49163C-6.67627 10.916 -0.629292 16.9346 6.83003 16.9346Z" fill="#CD6441"/>
</g>
<mask id="mask75_20_2050" style="mask-type:luminance" maskUnits="userSpaceOnUse" x="-17" y="-17" width="67" height="66">
<path d="M16.6764 -16.3041L-16.0842 16.303L16.6764 48.9101L49.4371 16.303L16.6764 -16.3041Z" fill="white"/>
</mask>
<g mask="url(#mask75_20_2050)">
<path d="M6.82995 16.6763C14.1459 16.6763 20.0767 10.7733 20.0767 3.49167C20.0767 -3.78998 14.1459 -9.69293 6.82995 -9.69293C-0.485999 -9.69293 -6.41675 -3.78998 -6.41675 3.49167C-6.41675 10.7733 -0.485999 16.6763 6.82995 16.6763Z" fill="#CE6541"/>
</g>
<mask id="mask76_20_2050" style="mask-type:luminance" maskUnits="userSpaceOnUse" x="-17" y="-17" width="67" height="66">
<path d="M16.6764 -16.3041L-16.0842 16.303L16.6764 48.9101L49.4371 16.303L16.6764 -16.3041Z" fill="white"/>
</mask>
<g mask="url(#mask76_20_2050)">
<path d="M6.83007 16.4215C14.0046 16.4215 19.8208 10.6326 19.8208 3.49164C19.8208 -3.6493 14.0046 -9.43817 6.83007 -9.43817C-0.344505 -9.43817 -6.16064 -3.6493 -6.16064 3.49164C-6.16064 10.6326 -0.344505 16.4215 6.83007 16.4215Z" fill="#CF6641"/>
</g>
<mask id="mask77_20_2050" style="mask-type:luminance" maskUnits="userSpaceOnUse" x="-17" y="-17" width="67" height="66">
<path d="M16.6764 -16.3041L-16.0842 16.303L16.6764 48.9101L49.4371 16.303L16.6764 -16.3041Z" fill="white"/>
</mask>
<g mask="url(#mask77_20_2050)">
<path d="M6.82999 16.1631C13.8612 16.1631 19.5611 10.4899 19.5611 3.49163C19.5611 -3.50661 13.8612 -9.17981 6.82999 -9.17981C-0.201211 -9.17981 -5.90112 -3.50661 -5.90112 3.49163C-5.90112 10.4899 -0.201211 16.1631 6.82999 16.1631Z" fill="#CF6741"/>
</g>
<mask id="mask78_20_2050" style="mask-type:luminance" maskUnits="userSpaceOnUse" x="-17" y="-17" width="67" height="66">
<path d="M16.6764 -16.3041L-16.0842 16.303L16.6764 48.9101L49.4371 16.303L16.6764 -16.3041Z" fill="white"/>
</mask>
<g mask="url(#mask78_20_2050)">
<path d="M6.8301 15.9083C13.7199 15.9083 19.3052 10.3492 19.3052 3.49165C19.3052 -3.36587 13.7199 -8.92499 6.8301 -8.92499C-0.0597177 -8.92499 -5.64502 -3.36587 -5.64502 3.49165C-5.64502 10.3492 -0.0597177 15.9083 6.8301 15.9083Z" fill="#D06840"/>
</g>
<mask id="mask79_20_2050" style="mask-type:luminance" maskUnits="userSpaceOnUse" x="-17" y="-17" width="67" height="66">
<path d="M16.6764 -16.3041L-16.0842 16.303L16.6764 48.9101L49.4371 16.303L16.6764 -16.3041Z" fill="white"/>
</mask>
<g mask="url(#mask79_20_2050)">
<path d="M6.83002 15.6499C13.5765 15.6499 19.0455 10.2065 19.0455 3.49164C19.0455 -3.22319 13.5765 -8.66663 6.83002 -8.66663C0.0835767 -8.66663 -5.3855 -3.22319 -5.3855 3.49164C-5.3855 10.2065 0.0835767 15.6499 6.83002 15.6499Z" fill="#D06940"/>
</g>
<mask id="mask80_20_2050" style="mask-type:luminance" maskUnits="userSpaceOnUse" x="-17" y="-17" width="67" height="66">
<path d="M16.6764 -16.3041L-16.0842 16.303L16.6764 48.9101L49.4371 16.303L16.6764 -16.3041Z" fill="white"/>
</mask>
<g mask="url(#mask80_20_2050)">
<path d="M6.83014 15.3951C13.4352 15.3951 18.7897 10.0658 18.7897 3.49167C18.7897 -3.08244 13.4352 -8.4118 6.83014 -8.4118C0.22507 -8.4118 -5.12939 -3.08244 -5.12939 3.49167C-5.12939 10.0658 0.22507 15.3951 6.83014 15.3951Z" fill="#D16A40"/>
</g>
<mask id="mask81_20_2050" style="mask-type:luminance" maskUnits="userSpaceOnUse" x="-17" y="-17" width="67" height="66">
<path d="M16.6764 -16.3041L-16.0842 16.303L16.6764 48.9101L49.4371 16.303L16.6764 -16.3041Z" fill="white"/>
</mask>
<g mask="url(#mask81_20_2050)">
<path d="M6.83006 15.1367C13.2918 15.1367 18.53 9.92305 18.53 3.49165C18.53 -2.93976 13.2918 -8.15344 6.83006 -8.15344C0.368366 -8.15344 -4.86987 -2.93976 -4.86987 3.49165C-4.86987 9.92305 0.368366 15.1367 6.83006 15.1367Z" fill="#D26B40"/>
</g>
<mask id="mask82_20_2050" style="mask-type:luminance" maskUnits="userSpaceOnUse" x="-17" y="-17" width="67" height="66">
<path d="M16.6764 -16.3041L-16.0842 16.303L16.6764 48.9101L49.4371 16.303L16.6764 -16.3041Z" fill="white"/>
</mask>
<g mask="url(#mask82_20_2050)">
<path d="M6.83017 14.882C13.1505 14.882 18.2741 9.78236 18.2741 3.49168C18.2741 -2.79901 13.1505 -7.89862 6.83017 -7.89862C0.509856 -7.89862 -4.61377 -2.79901 -4.61377 3.49168C-4.61377 9.78236 0.509856 14.882 6.83017 14.882Z" fill="#D26C40"/>
</g>
<mask id="mask83_20_2050" style="mask-type:luminance" maskUnits="userSpaceOnUse" x="-17" y="-17" width="67" height="66">
<path d="M16.6764 -16.3041L-16.0842 16.303L16.6764 48.9101L49.4371 16.303L16.6764 -16.3041Z" fill="white"/>
</mask>
<g mask="url(#mask83_20_2050)">
<path d="M6.8301 14.6236C13.007 14.6236 18.0144 9.63964 18.0144 3.49166C18.0144 -2.65633 13.007 -7.64026 6.8301 -7.64026C0.653153 -7.64026 -4.35425 -2.65633 -4.35425 3.49166C-4.35425 9.63964 0.653153 14.6236 6.8301 14.6236Z" fill="#D36D40"/>
</g>
<mask id="mask84_20_2050" style="mask-type:luminance" maskUnits="userSpaceOnUse" x="-17" y="-17" width="67" height="66">
<path d="M16.6764 -16.3041L-16.0842 16.303L16.6764 48.9101L49.4371 16.303L16.6764 -16.3041Z" fill="white"/>
</mask>
<g mask="url(#mask84_20_2050)">
<path d="M6.82996 14.3688C12.8655 14.3688 17.7583 9.49895 17.7583 3.49169C17.7583 -2.51558 12.8655 -7.38544 6.82996 -7.38544C0.794399 -7.38544 -4.09839 -2.51558 -4.09839 3.49169C-4.09839 9.49895 0.794399 14.3688 6.82996 14.3688Z" fill="#D36E3F"/>
</g>
<mask id="mask85_20_2050" style="mask-type:luminance" maskUnits="userSpaceOnUse" x="-17" y="-17" width="67" height="66">
<path d="M16.6764 -16.3041L-16.0842 16.303L16.6764 48.9101L49.4371 16.303L16.6764 -16.3041Z" fill="white"/>
</mask>
<g mask="url(#mask85_20_2050)">
<path d="M6.82988 14.1104C12.7221 14.1104 17.4986 9.35624 17.4986 3.49167C17.4986 -2.3729 12.7221 -7.12708 6.82988 -7.12708C0.937696 -7.12708 -3.83887 -2.3729 -3.83887 3.49167C-3.83887 9.35624 0.937696 14.1104 6.82988 14.1104Z" fill="#D46F3F"/>
</g>
<mask id="mask86_20_2050" style="mask-type:luminance" maskUnits="userSpaceOnUse" x="-17" y="-17" width="67" height="66">
<path d="M16.6764 -16.3041L-16.0842 16.303L16.6764 48.9101L49.4371 16.303L16.6764 -16.3041Z" fill="white"/>
</mask>
<g mask="url(#mask86_20_2050)">
<path d="M6.83 13.8556C12.5808 13.8556 17.2428 9.21548 17.2428 3.49163C17.2428 -2.23222 12.5808 -6.87231 6.83 -6.87231C1.07919 -6.87231 -3.58276 -2.23222 -3.58276 3.49163C-3.58276 9.21548 1.07919 13.8556 6.83 13.8556Z" fill="#D5703F"/>
</g>
<mask id="mask87_20_2050" style="mask-type:luminance" maskUnits="userSpaceOnUse" x="-17" y="-17" width="67" height="66">
<path d="M16.6764 -16.3041L-16.0842 16.303L16.6764 48.9101L49.4371 16.303L16.6764 -16.3041Z" fill="white"/>
</mask>
<g mask="url(#mask87_20_2050)">
<path d="M6.83016 13.5972C12.4376 13.5972 16.9833 9.07283 16.9833 3.49168C16.9833 -2.08947 12.4376 -6.61389 6.83016 -6.61389C1.22273 -6.61389 -3.323 -2.08947 -3.323 3.49168C-3.323 9.07283 1.22273 13.5972 6.83016 13.5972Z" fill="#D5713F"/>
</g>
<mask id="mask88_20_2050" style="mask-type:luminance" maskUnits="userSpaceOnUse" x="-17" y="-17" width="67" height="66">
<path d="M16.6764 -16.3041L-16.0842 16.303L16.6764 48.9101L49.4371 16.303L16.6764 -16.3041Z" fill="white"/>
</mask>
<g mask="url(#mask88_20_2050)">
<path d="M6.83003 13.3424C12.2961 13.3424 16.7272 8.93208 16.7272 3.49164C16.7272 -1.94879 12.2961 -6.35913 6.83003 -6.35913C1.36398 -6.35913 -3.06714 -1.94879 -3.06714 3.49164C-3.06714 8.93208 1.36398 13.3424 6.83003 13.3424Z" fill="#D6723F"/>
</g>
<mask id="mask89_20_2050" style="mask-type:luminance" maskUnits="userSpaceOnUse" x="-17" y="-17" width="67" height="66">
<path d="M16.6764 -16.3041L-16.0842 16.303L16.6764 48.9101L49.4371 16.303L16.6764 -16.3041Z" fill="white"/>
</mask>
<g mask="url(#mask89_20_2050)">
<path d="M6.82995 13.084C12.1526 13.084 16.4675 8.78936 16.4675 3.49163C16.4675 -1.80611 12.1526 -6.10077 6.82995 -6.10077C1.50727 -6.10077 -2.80762 -1.80611 -2.80762 3.49163C-2.80762 8.78936 1.50727 13.084 6.82995 13.084Z" fill="#D6733F"/>
</g>
<mask id="mask90_20_2050" style="mask-type:luminance" maskUnits="userSpaceOnUse" x="-17" y="-17" width="67" height="66">
<path d="M16.6764 -16.3041L-16.0842 16.303L16.6764 48.9101L49.4371 16.303L16.6764 -16.3041Z" fill="white"/>
</mask>
<g mask="url(#mask90_20_2050)">
<path d="M6.83012 12.8257C12.0094 12.8257 16.2081 8.6467 16.2081 3.49167C16.2081 -1.66337 12.0094 -5.84235 6.83012 -5.84235C1.65081 -5.84235 -2.54785 -1.66337 -2.54785 3.49167C-2.54785 8.6467 1.65081 12.8257 6.83012 12.8257Z" fill="#D7743E"/>
</g>
<mask id="mask91_20_2050" style="mask-type:luminance" maskUnits="userSpaceOnUse" x="-17" y="-17" width="67" height="66">
<path d="M16.6764 -16.3041L-16.0842 16.303L16.6764 48.9101L49.4371 16.303L16.6764 -16.3041Z" fill="white"/>
</mask>
<g mask="url(#mask91_20_2050)">
<path d="M6.82999 12.5709C11.8679 12.5709 15.952 8.50595 15.952 3.49164C15.952 -1.52268 11.8679 -5.58759 6.82999 -5.58759C1.79206 -5.58759 -2.29199 -1.52268 -2.29199 3.49164C-2.29199 8.50595 1.79206 12.5709 6.82999 12.5709Z" fill="#D8753E"/>
</g>
<mask id="mask92_20_2050" style="mask-type:luminance" maskUnits="userSpaceOnUse" x="-17" y="-17" width="67" height="66">
<path d="M16.6764 -16.3041L-16.0842 16.303L16.6764 48.9101L49.4371 16.303L16.6764 -16.3041Z" fill="white"/>
</mask>
<g mask="url(#mask92_20_2050)">
<path d="M6.82991 12.3125C11.7245 12.3125 15.6923 8.36329 15.6923 3.49168C15.6923 -1.37994 11.7245 -5.32916 6.82991 -5.32916C1.93535 -5.32916 -2.03247 -1.37994 -2.03247 3.49168C-2.03247 8.36329 1.93535 12.3125 6.82991 12.3125Z" fill="#D8763E"/>
</g>
<mask id="mask93_20_2050" style="mask-type:luminance" maskUnits="userSpaceOnUse" x="-17" y="-17" width="67" height="66">
<path d="M16.6764 -16.3041L-16.0842 16.303L16.6764 48.9101L49.4371 16.303L16.6764 -16.3041Z" fill="white"/>
</mask>
<g mask="url(#mask93_20_2050)">
<path d="M6.83002 12.0577C11.5832 12.0577 15.4364 8.22254 15.4364 3.49165C15.4364 -1.23925 11.5832 -5.0744 6.83002 -5.0744C2.07685 -5.0744 -1.77637 -1.23925 -1.77637 3.49165C-1.77637 8.22254 2.07685 12.0577 6.83002 12.0577Z" fill="#D9773E"/>
</g>
<mask id="mask94_20_2050" style="mask-type:luminance" maskUnits="userSpaceOnUse" x="-17" y="-17" width="67" height="66">
<path d="M16.6764 -16.3041L-16.0842 16.303L16.6764 48.9101L49.4371 16.303L16.6764 -16.3041Z" fill="white"/>
</mask>
<g mask="url(#mask94_20_2050)">
<path d="M6.83019 11.7993C11.44 11.7993 15.177 8.07983 15.177 3.49163C15.177 -1.09657 11.44 -4.81604 6.83019 -4.81604C2.22039 -4.81604 -1.5166 -1.09657 -1.5166 3.49163C-1.5166 8.07983 2.22039 11.7993 6.83019 11.7993Z" fill="#D9783E"/>
</g>
<mask id="mask95_20_2050" style="mask-type:luminance" maskUnits="userSpaceOnUse" x="-17" y="-17" width="67" height="66">
<path d="M16.6764 -16.3041L-16.0842 16.303L16.6764 48.9101L49.4371 16.303L16.6764 -16.3041Z" fill="white"/>
</mask>
<g mask="url(#mask95_20_2050)">
<path d="M6.83006 11.5445C11.2985 11.5445 14.9209 7.93914 14.9209 3.49166C14.9209 -0.955823 11.2985 -4.56122 6.83006 -4.56122C2.36163 -4.56122 -1.26074 -0.955823 -1.26074 3.49166C-1.26074 7.93914 2.36163 11.5445 6.83006 11.5445Z" fill="#DA793E"/>
</g>
<mask id="mask96_20_2050" style="mask-type:luminance" maskUnits="userSpaceOnUse" x="-17" y="-17" width="67" height="66">
<path d="M16.6764 -16.3041L-16.0842 16.303L16.6764 48.9101L49.4371 16.303L16.6764 -16.3041Z" fill="white"/>
</mask>
<g mask="url(#mask96_20_2050)">
<path d="M6.82998 11.2861C11.155 11.2861 14.6612 7.79642 14.6612 3.49164C14.6612 -0.813143 11.155 -4.30286 6.82998 -4.30286C2.50493 -4.30286 -1.00122 -0.813143 -1.00122 3.49164C-1.00122 7.79642 2.50493 11.2861 6.82998 11.2861Z" fill="#DB7A3E"/>
</g>
<mask id="mask97_20_2050" style="mask-type:luminance" maskUnits="userSpaceOnUse" x="-17" y="-17" width="67" height="66">
<path d="M16.6764 -16.3041L-16.0842 16.303L16.6764 48.9101L49.4371 16.303L16.6764 -16.3041Z" fill="white"/>
</mask>
<g mask="url(#mask97_20_2050)">
<path d="M6.83009 11.0314C11.0138 11.0314 14.4053 7.65573 14.4053 3.49167C14.4053 -0.672395 11.0138 -4.04803 6.83009 -4.04803C2.64642 -4.04803 -0.745117 -0.672395 -0.745117 3.49167C-0.745117 7.65573 2.64642 11.0314 6.83009 11.0314Z" fill="#DB7B3D"/>
</g>
<mask id="mask98_20_2050" style="mask-type:luminance" maskUnits="userSpaceOnUse" x="-17" y="-17" width="67" height="66">
<path d="M16.6764 -16.3041L-16.0842 16.303L16.6764 48.9101L49.4371 16.303L16.6764 -16.3041Z" fill="white"/>
</mask>
<g mask="url(#mask98_20_2050)">
<path d="M6.83002 10.773C10.8703 10.773 14.1456 7.51301 14.1456 3.49165C14.1456 -0.529715 10.8703 -3.78967 6.83002 -3.78967C2.78972 -3.78967 -0.485596 -0.529715 -0.485596 3.49165C-0.485596 7.51301 2.78972 10.773 6.83002 10.773Z" fill="#DC7C3D"/>
</g>
<mask id="mask99_20_2050" style="mask-type:luminance" maskUnits="userSpaceOnUse" x="-17" y="-17" width="67" height="66">
<path d="M16.6764 -16.3041L-16.0842 16.303L16.6764 48.9101L49.4371 16.303L16.6764 -16.3041Z" fill="white"/>
</mask>
<g mask="url(#mask99_20_2050)">
<path d="M6.83013 10.5182C10.729 10.5182 13.8897 7.37232 13.8897 3.49168C13.8897 -0.388967 10.729 -3.53485 6.83013 -3.53485C2.93121 -3.53485 -0.229492 -0.388967 -0.229492 3.49168C-0.229492 7.37232 2.93121 10.5182 6.83013 10.5182Z" fill="#DC7D3D"/>
</g>
<mask id="mask100_20_2050" style="mask-type:luminance" maskUnits="userSpaceOnUse" x="-17" y="-17" width="67" height="66">
<path d="M16.6764 -16.3041L-16.0842 16.303L16.6764 48.9101L49.4371 16.303L16.6764 -16.3041Z" fill="white"/>
</mask>
<g mask="url(#mask100_20_2050)">
<path d="M6.83005 10.2598C10.5856 10.2598 13.6301 7.2296 13.6301 3.49166C13.6301 -0.246286 10.5856 -3.27649 6.83005 -3.27649C3.0745 -3.27649 0.0300293 -0.246286 0.0300293 3.49166C0.0300293 7.2296 3.0745 10.2598 6.83005 10.2598Z" fill="#DD7E3D"/>
</g>
</g>
<path d="M26.5341 6.49178C21.1005 1.08372 12.2562 1.08013 6.81904 6.49178C1.38551 11.8998 1.38551 20.7027 6.81904 26.1144C12.2526 31.526 21.0969 31.5224 26.5341 26.1144C31.9676 20.7027 31.9676 11.9034 26.5341 6.49178ZM7.65913 25.0593C2.85296 20.1609 2.88902 12.2874 7.76369 7.432C12.642 2.57659 20.5525 2.54429 25.474 7.32793L27.1686 9.35909C27.1722 9.36627 27.1795 9.37344 27.1831 9.38062C27.2119 9.42727 27.2407 9.47392 27.2732 9.52058C27.3489 9.639 27.4246 9.75743 27.4967 9.87944C27.5328 9.94403 27.5688 10.005 27.6049 10.0696C27.6662 10.1737 27.7275 10.2814 27.7852 10.389C27.8212 10.4572 27.8573 10.529 27.8933 10.5972C27.9474 10.7012 27.9979 10.8053 28.0484 10.9094C28.0844 10.9811 28.1169 11.0529 28.1493 11.1283C28.1962 11.2324 28.2431 11.34 28.2863 11.4441C28.3152 11.5159 28.3476 11.5876 28.3765 11.663C28.4198 11.7742 28.463 11.8855 28.5027 11.9967C28.5279 12.0649 28.5532 12.1331 28.5784 12.2013C28.6253 12.3305 28.6649 12.4633 28.7046 12.596C28.719 12.6463 28.737 12.6965 28.7515 12.7468C28.8055 12.9298 28.856 13.1092 28.8993 13.2922C28.9137 13.3461 28.9245 13.3999 28.9353 13.4501C28.9642 13.5829 28.9966 13.7157 29.0219 13.8485C29.0363 13.9202 29.0471 13.9956 29.0615 14.0674C29.0832 14.1822 29.1012 14.2934 29.1192 14.4083C29.13 14.4872 29.1409 14.5662 29.1517 14.6451C29.1661 14.7564 29.1805 14.864 29.1913 14.9753C29.1985 15.0542 29.2094 15.1368 29.213 15.2157C29.2238 15.327 29.231 15.4346 29.2382 15.5459C29.2418 15.6248 29.249 15.7038 29.249 15.7863C29.2526 15.9012 29.2562 16.0124 29.2562 16.1272C29.2562 16.2026 29.2598 16.278 29.2598 16.3533C29.2598 16.4825 29.2562 16.6117 29.249 16.7373C29.2454 16.7983 29.2454 16.8593 29.2418 16.9203C29.231 17.1069 29.2202 17.2935 29.2022 17.4801C29.1985 17.5268 29.1913 17.577 29.1841 17.6237C29.1697 17.7636 29.1517 17.9036 29.1336 18.0436C29.1228 18.1153 29.112 18.1871 29.1012 18.2589C29.0832 18.3737 29.0651 18.4886 29.0435 18.607C29.0291 18.6859 29.0147 18.7613 28.9966 18.8402C28.975 18.9515 28.9498 19.0591 28.9245 19.1704C28.9065 19.2493 28.8849 19.3283 28.8668 19.4037C28.838 19.5113 28.8091 19.619 28.7803 19.7266C28.7587 19.802 28.737 19.8809 28.7118 19.9563C28.6793 20.0675 28.6433 20.1752 28.6036 20.2865C28.5784 20.3582 28.5568 20.43 28.5315 20.5018C28.4883 20.6238 28.4414 20.7422 28.3945 20.8642C28.3729 20.9216 28.3512 20.9826 28.326 21.0401C28.2539 21.2159 28.1782 21.3918 28.0953 21.5676C28.0808 21.5963 28.0664 21.6214 28.0556 21.6501C27.9871 21.7973 27.915 21.9444 27.8393 22.0879C27.8068 22.149 27.7744 22.2064 27.7419 22.2674C27.6806 22.3786 27.6193 22.4899 27.5544 22.6011C27.5148 22.6693 27.4751 22.7339 27.4354 22.7985C27.3741 22.899 27.3092 23.003 27.2443 23.0999C27.2011 23.1681 27.1542 23.2327 27.1109 23.3009C27.046 23.3978 26.9775 23.4947 26.9054 23.5916C26.8586 23.6562 26.8117 23.7208 26.7612 23.7854C26.6891 23.8823 26.6134 23.9791 26.5341 24.076C26.4872 24.137 26.4367 24.1981 26.3898 24.2555C26.3033 24.3595 26.2132 24.46 26.123 24.5641C26.0798 24.6143 26.0365 24.6646 25.9932 24.7148C25.8562 24.8655 25.7156 25.0127 25.5714 25.1562C25.4272 25.2998 25.2793 25.4397 25.1279 25.5761C25.0774 25.6192 25.027 25.6622 24.9765 25.7053C24.8755 25.795 24.771 25.8847 24.6664 25.9708C24.6051 26.0211 24.5438 26.0677 24.4861 26.1144C24.3888 26.1897 24.2914 26.2651 24.1941 26.3405C24.1292 26.3871 24.0643 26.4374 23.9994 26.484C23.902 26.5522 23.8047 26.6204 23.7073 26.6886C23.6388 26.7352 23.5739 26.7783 23.5054 26.8213C23.4045 26.8859 23.3035 26.9505 23.1989 27.0115C23.1341 27.051 23.0655 27.0905 23.0006 27.13C22.8889 27.1946 22.7771 27.2556 22.6653 27.3166C22.604 27.3489 22.5463 27.3812 22.4887 27.4135C22.3408 27.4888 22.1894 27.5642 22.0416 27.6324C22.0163 27.6431 21.9911 27.6575 21.9659 27.6683C21.7892 27.7472 21.6125 27.8262 21.4358 27.8979C21.3782 27.9195 21.3205 27.941 21.2628 27.9625C21.1402 28.0092 21.0176 28.0558 20.895 28.1025C20.8229 28.1276 20.7544 28.1491 20.6823 28.1743C20.5705 28.2101 20.4587 28.246 20.347 28.2819C20.2713 28.3034 20.1955 28.325 20.1198 28.3465C20.0117 28.3788 19.8999 28.4075 19.7917 28.4362C19.716 28.4542 19.6367 28.4757 19.561 28.4936C19.4492 28.5188 19.3374 28.5439 19.2257 28.5654C19.1499 28.5798 19.0742 28.5977 18.9985 28.6121C18.8795 28.6336 18.7605 28.6515 18.6416 28.6731C18.5731 28.6838 18.5009 28.6946 18.4324 28.7054C18.2882 28.7269 18.1404 28.7413 17.9962 28.7556C17.9529 28.7592 17.9096 28.7664 17.8664 28.77C17.6789 28.7879 17.4878 28.8023 17.3003 28.8094C17.2426 28.813 17.1849 28.813 17.1272 28.8166C16.9938 28.8202 16.8604 28.8238 16.7306 28.8274C16.6585 28.8274 16.5828 28.8274 16.5071 28.8238C16.3917 28.8238 16.2727 28.8202 16.1574 28.8166C16.078 28.813 16.0023 28.8094 15.923 28.8059C15.8112 28.7987 15.6958 28.7915 15.5841 28.7807C15.5048 28.7736 15.4254 28.7664 15.3461 28.7592C15.2307 28.7484 15.119 28.7341 15.0072 28.7197C14.9315 28.709 14.8522 28.6982 14.7764 28.6874C14.6575 28.6695 14.5421 28.648 14.4231 28.63C14.351 28.6157 14.2825 28.6049 14.2104 28.5905C14.0734 28.5618 13.9364 28.5331 13.7957 28.5008C13.7453 28.4901 13.6984 28.4793 13.6515 28.4685C13.4676 28.4219 13.2801 28.3752 13.0999 28.3214C13.053 28.307 13.0061 28.2927 12.9593 28.2783C12.8222 28.2353 12.6852 28.1922 12.5482 28.1455C12.4797 28.124 12.4148 28.0989 12.3499 28.0738C12.2345 28.0307 12.1192 27.9912 12.0074 27.9446C11.9353 27.9159 11.8632 27.8872 11.7911 27.8549C11.6829 27.8082 11.5747 27.7652 11.4702 27.7149C11.3981 27.6826 11.326 27.6503 11.2538 27.6144C11.1457 27.5642 11.0411 27.5104 10.9366 27.4601C10.868 27.4242 10.7995 27.3883 10.731 27.3525C10.6229 27.295 10.5147 27.234 10.4065 27.173C10.3452 27.1371 10.2803 27.1013 10.2191 27.0654C10.0965 26.9936 9.97388 26.9146 9.85489 26.8393C9.80802 26.8106 9.76476 26.7819 9.71789 26.7532C9.71067 26.7496 9.70346 26.7424 9.69625 26.7388L7.65913 25.0593Z" fill="#0D1235"/>
<path d="M16.3161 11.3149L16.1395 10.2419L10.8357 10.9955L7.83594 19.9958H10.0642L16.3161 11.3149Z" fill="#0D1235"/>
<path d="M20.4335 19.9958H25.5173L23.2855 14.0422L19.2148 16.1954L20.4335 19.9958Z" fill="#0D1235"/>
<path d="M18.3531 19.9957L16.6766 13.791L12.3247 19.9957H18.3531Z" fill="#0D1235"/>
</svg>
