<svg width="37" height="31" viewBox="0 0 37 31" fill="none" xmlns="http://www.w3.org/2000/svg">
<path fill-rule="evenodd" clip-rule="evenodd" d="M7.35419 0.150063L0.919764 13.6022C0.895279 13.6523 0.88752 13.7088 0.897621 13.7635C0.907723 13.8183 0.935155 13.8684 0.975905 13.9065L18.3538 30.4806C18.4031 30.5277 18.4689 30.554 18.5373 30.554C18.6056 30.554 18.6714 30.5277 18.7208 30.4806L36.0986 13.9075C36.1394 13.8694 36.1668 13.8193 36.1769 13.7646C36.187 13.7098 36.1792 13.6533 36.1547 13.6033L29.7203 0.151098C29.6995 0.10592 29.6662 0.0676486 29.6241 0.0408575C29.5821 0.0140665 29.5332 -0.000110824 29.4833 2.00255e-05H7.59332C7.54316 -0.000601012 7.4939 0.0132348 7.45147 0.0398584C7.40904 0.066482 7.37526 0.104756 7.35419 0.150063Z" fill="#50AF95"/>
<path fill-rule="evenodd" clip-rule="evenodd" d="M20.7701 14.9837C20.6453 14.993 20.0007 15.0313 18.5629 15.0313C17.4192 15.0313 16.6073 14.9971 16.3224 14.9837C11.9028 14.7902 8.604 14.0244 8.604 13.1076C8.604 12.1908 11.9028 11.4261 16.3224 11.2295V14.2211C16.6114 14.2417 17.439 14.2904 18.5826 14.2904C19.955 14.2904 20.6422 14.2335 20.7659 14.2221V11.2316C25.1761 11.4271 28.4677 12.1929 28.4677 13.1076C28.4677 14.0224 25.1772 14.7881 20.7659 14.9827L20.7701 14.9837ZM20.7701 10.9222V8.24518H26.9248V4.16296H10.1676V8.24518H16.3214V10.9211C11.3196 11.1498 7.55811 12.136 7.55811 13.3177C7.55811 14.4994 11.3196 15.4845 16.3214 15.7142V24.2926H20.769V15.7111C25.7594 15.4825 29.5146 14.4973 29.5146 13.3167C29.5146 12.136 25.7625 11.1509 20.769 10.9211L20.7701 10.9222Z" fill="white"/>
</svg>
