<svg width="155" height="37" viewBox="0 0 155 37" fill="none" xmlns="http://www.w3.org/2000/svg">
<mask id="mask0_93_1212" style="mask-type:luminance" maskUnits="userSpaceOnUse" x="0" y="0" width="37" height="37">
<path d="M36.7816 0.20166H0.786133V36.2061H36.7816V0.20166Z" fill="white"/>
</mask>
<g mask="url(#mask0_93_1212)">
<path d="M27.7071 12.2383C27.3725 12.0512 26.9955 11.953 26.6121 11.953C26.2288 11.953 25.8518 12.0512 25.5172 12.2383L20.4928 15.1532L17.079 17.0543L12.0549 19.9692C11.7202 20.1561 11.3432 20.2542 10.9599 20.2542C10.5766 20.2542 10.1996 20.1561 9.8649 19.9692L5.87114 17.6879C5.5462 17.5016 5.27479 17.2345 5.08311 16.9126C4.89143 16.5907 4.78596 16.2248 4.77688 15.8503V11.3512C4.77238 10.9737 4.87218 10.6024 5.06527 10.2782C5.25836 9.9539 5.53723 9.68928 5.87114 9.51348L9.8004 7.2956C10.1351 7.10868 10.512 7.01055 10.8954 7.01055C11.2787 7.01055 11.6557 7.10868 11.9904 7.2956L15.9196 9.51348C16.2446 9.69986 16.516 9.9669 16.7077 10.2888C16.8993 10.6107 17.0048 10.9766 17.0139 11.3512V14.2661L20.4277 12.3017V9.38675C20.4322 9.00934 20.3324 8.63803 20.1393 8.31376C19.9462 7.9895 19.6673 7.72487 19.3334 7.54908L12.0549 3.36708C11.7202 3.18016 11.3432 3.08203 10.9599 3.08203C10.5766 3.08203 10.1996 3.18016 9.8649 3.36708L2.45647 7.54936C2.12261 7.72514 1.84376 7.98972 1.65067 8.31393C1.45759 8.63814 1.35776 9.00939 1.36221 9.38675V17.8147C1.35771 18.1921 1.45751 18.5634 1.6506 18.8877C1.84369 19.2119 2.12256 19.4765 2.45647 19.6523L9.86404 23.8346C10.1987 24.0215 10.5757 24.1197 10.959 24.1197C11.3424 24.1197 11.7193 24.0215 12.054 23.8346L17.0781 20.9831L20.4919 19.0187L25.5163 16.1671C25.8509 15.98 26.2279 15.8818 26.6113 15.8818C26.9946 15.8818 27.3716 15.98 27.7063 16.1671L31.6355 18.385C31.9604 18.5714 32.2318 18.8384 32.4235 19.1603C32.6152 19.4822 32.7207 19.8481 32.7298 20.2227V24.7218C32.7343 25.0992 32.6345 25.4705 32.4414 25.7948C32.2483 26.119 31.9694 26.3837 31.6355 26.5594L27.7063 28.8407C27.3716 29.0276 26.9946 29.1257 26.6113 29.1257C26.2279 29.1257 25.851 29.0276 25.5163 28.8407L21.587 26.6228C21.2621 26.4364 20.9907 26.1694 20.799 25.8475C20.6074 25.5256 20.5019 25.1597 20.4928 24.7851V21.8699L17.079 23.8343V26.7493C17.0745 27.1267 17.1743 27.498 17.3674 27.8222C17.5604 28.1465 17.8393 28.4111 18.1732 28.5869L25.5808 32.7692C25.9155 32.9561 26.2924 33.0543 26.6758 33.0543C27.0591 33.0543 27.4361 32.9561 27.7708 32.7692L35.1783 28.5869C35.5033 28.4005 35.7747 28.1335 35.9663 27.8116C36.158 27.4897 36.2635 27.1238 36.2726 26.7493V18.3216C36.2771 17.9442 36.1773 17.5729 35.9842 17.2486C35.7911 16.9244 35.5122 16.6597 35.1783 16.4839L27.7071 12.2383Z" fill="black"/>
</g>
<path d="M53.2282 11.3346C54.3961 11.3167 55.5442 11.6375 56.5337 12.2583C57.5352 12.9071 58.3331 13.8257 58.8354 14.9082C59.4249 16.187 59.7133 17.584 59.6786 18.9917C59.7103 20.3946 59.422 21.7862 58.8354 23.0608C58.336 24.1489 57.5378 25.0727 56.5337 25.7246C55.5442 26.3453 54.3961 26.6662 53.2282 26.6483C52.1926 26.6766 51.1707 26.4066 50.2841 25.8706C49.479 25.3715 48.8516 24.6315 48.4909 23.7556V33.5805H43.9143V11.5227H48.4909V14.2265C48.8518 13.3508 49.4793 12.6111 50.2843 12.1123C51.1709 11.5763 52.1927 11.3064 53.2282 11.3346ZM51.7561 15.3507C51.3147 15.3362 50.8752 15.4159 50.4668 15.5843C50.0585 15.7528 49.6906 16.0062 49.3876 16.3277C48.772 16.979 48.4641 17.867 48.4641 18.9914C48.4154 19.9613 48.7467 20.912 49.3876 21.6414C49.6885 21.9665 50.0556 22.2233 50.4643 22.3943C50.8729 22.5652 51.3134 22.6465 51.7561 22.6325C52.1969 22.6507 52.6364 22.5741 53.045 22.4078C53.4536 22.2416 53.8218 21.9895 54.1246 21.6687C54.7226 21.0262 55.0216 20.1339 55.0216 18.9917C55.0216 17.8496 54.7227 16.9572 54.1249 16.3147C53.822 15.9939 53.4538 15.7417 53.0452 15.5754C52.6365 15.4091 52.1969 15.3325 51.7561 15.3507ZM69.046 11.3346C70.4264 11.3111 71.7913 11.6284 73.0199 12.2583C74.1762 12.8621 75.1335 13.7871 75.7766 14.9221C76.4667 16.1651 76.8131 17.5697 76.7802 18.9912C76.8137 20.4127 76.4678 21.8175 75.778 23.0608C75.1349 24.1958 74.1776 25.1208 73.0214 25.7246C71.7928 26.3545 70.4279 26.6718 69.0475 26.6483C67.6627 26.6708 66.2934 26.3537 65.0595 25.7246C63.8975 25.1239 62.9351 24.1985 62.2893 23.0608C61.5986 21.8179 61.2517 20.4133 61.2843 18.9917C61.2513 17.5703 61.5977 16.1657 62.2878 14.9226C62.9336 13.785 63.896 12.8595 65.058 12.2589C66.2919 11.6296 67.6612 11.3122 69.046 11.3346ZM69.046 15.2968C68.6316 15.2892 68.2203 15.37 67.8395 15.5339C67.4587 15.6978 67.1173 15.941 66.8379 16.2473C66.2401 16.881 65.9412 17.7957 65.9412 18.9914C65.9412 20.1872 66.2401 21.0974 66.8379 21.722C67.1194 22.0248 67.4615 22.2648 67.842 22.4262C68.2225 22.5877 68.6328 22.667 69.046 22.659C69.4574 22.6679 69.8659 22.5889 70.2444 22.4273C70.6228 22.2657 70.9624 22.0253 71.2406 21.722C71.8294 21.0974 72.1238 20.1872 72.1238 18.9914C72.1238 17.7957 71.8294 16.881 71.2406 16.2473C70.9644 15.9407 70.6254 15.6972 70.2468 15.5333C69.8681 15.3693 69.4586 15.2883 69.046 15.2968ZM83.7397 2.79346V26.4608H79.1628V2.79403L83.7397 2.79346ZM90.3504 11.5209L93.9367 20.6782L97.2823 11.5224H102.341L93.0271 33.5819H87.9952L91.5008 25.8985L85.2385 11.5227L90.3504 11.5209ZM109.54 11.3346C110.576 11.3063 111.598 11.5763 112.484 12.1123C113.293 12.6151 113.928 13.3531 114.304 14.2273V11.5235H118.854V26.3804C118.874 27.6789 118.6 28.965 118.051 30.1419C117.516 31.2569 116.658 32.1851 115.589 32.8056C114.482 33.466 113.108 33.7962 111.467 33.7962C109.219 33.7962 107.421 33.2653 106.074 32.2034C104.726 31.1401 103.855 29.5851 103.652 27.8799H108.175C108.301 28.463 108.652 28.9728 109.152 29.2988C109.751 29.6624 110.445 29.8395 111.146 29.8075C111.986 29.8459 112.808 29.5526 113.434 28.9909C114.014 28.4465 114.304 27.5764 114.304 26.3807V23.757C113.927 24.6312 113.292 25.3692 112.484 25.872C111.598 26.4081 110.576 26.678 109.54 26.6497C108.372 26.6676 107.224 26.3468 106.234 25.726C105.23 25.0741 104.432 24.1504 103.933 23.0623C103.346 21.7876 103.058 20.396 103.09 18.9932C103.055 17.5857 103.343 16.1891 103.933 14.9106C104.435 13.828 105.233 12.9094 106.234 12.2606C107.224 11.639 108.372 11.3173 109.54 11.3346ZM111.012 15.3504C110.572 15.3322 110.132 15.4088 109.724 15.5751C109.315 15.7413 108.947 15.9934 108.644 16.3141C108.046 16.9567 107.747 17.849 107.747 18.9912C107.747 20.1333 108.046 21.0256 108.644 21.6682C108.947 21.9889 109.315 22.241 109.724 22.4072C110.132 22.5735 110.572 22.6501 111.012 22.6319C111.455 22.646 111.896 22.5648 112.304 22.3939C112.713 22.2231 113.08 21.9664 113.381 21.6414C114.022 20.912 114.353 19.9613 114.304 18.9914C114.304 17.8671 113.997 16.9792 113.381 16.3277C113.078 16.0062 112.71 15.7528 112.302 15.5843C111.893 15.4159 111.454 15.3359 111.012 15.3504ZM128.998 11.3346C130.378 11.3111 131.743 11.6284 132.972 12.2583C134.128 12.8621 135.085 13.7871 135.729 14.9221C136.419 16.1651 136.765 17.5697 136.732 18.9912C136.765 20.4128 136.419 21.8175 135.729 23.0608C135.086 24.1958 134.129 25.1208 132.972 25.7246C131.744 26.3545 130.379 26.6718 128.999 26.6483C127.614 26.6708 126.245 26.3537 125.011 25.7246C123.849 25.1239 122.886 24.1985 122.24 23.0608C121.55 21.8178 121.204 20.4132 121.237 18.9917C121.204 17.5703 121.55 16.1657 122.24 14.9226C122.886 13.785 123.849 12.8595 125.011 12.2589C126.244 11.6297 127.613 11.3123 128.998 11.3346ZM128.998 15.2968C128.584 15.2892 128.172 15.37 127.791 15.5339C127.411 15.6978 127.069 15.941 126.79 16.2473C126.192 16.881 125.893 17.7957 125.893 18.9914C125.893 20.1872 126.192 21.0974 126.79 21.722C127.071 22.0248 127.413 22.2648 127.794 22.4262C128.174 22.5877 128.585 22.667 128.998 22.659C129.409 22.6679 129.818 22.5889 130.196 22.4273C130.575 22.2657 130.914 22.0253 131.193 21.722C131.781 21.0974 132.076 20.1872 132.076 18.9914C132.076 17.7957 131.781 16.881 131.193 16.2473C130.916 15.9407 130.577 15.6972 130.199 15.5333C129.82 15.3693 129.411 15.2883 128.998 15.2968ZM148.59 11.3619C150.303 11.3619 151.663 11.933 152.671 13.0752C153.679 14.2173 154.183 15.7878 154.183 17.7866V26.4608H149.607V18.3223C149.607 17.3238 149.343 16.5429 148.817 15.9797C148.547 15.6975 148.22 15.4763 147.857 15.3308C147.495 15.1854 147.105 15.1191 146.715 15.1364C146.305 15.1166 145.896 15.1852 145.515 15.3376C145.134 15.4901 144.79 15.7227 144.507 16.0198C143.963 16.6089 143.692 17.4475 143.692 18.5355V26.4608H139.115V11.5227H143.692V14.2533C144.107 13.3749 144.773 12.6391 145.605 12.1382C146.508 11.6058 147.542 11.3369 148.59 11.3619Z" fill="black"/>
</svg>
