<svg width="41" height="39" viewBox="0 0 41 39" fill="none" xmlns="http://www.w3.org/2000/svg">
<path d="M40.08 21.8812L38.95 23.7802L32.7632 34.2102H32.735L32.5372 34.5786H30.2772L21.4915 19.0753L30.4185 3.65708H32.6785L32.735 3.74211L40.1082 16.4111H35.56L31.6332 9.41058L26.0397 19.1037L31.5202 28.7968L35.5035 21.9096L40.08 21.8812Z" fill="white"/>
<path d="M5.69974 24.4037L9.82424 31.461L8.43999 33.7L7.47949 35.2872L0.416988 22.7882L0.219238 22.4481L1.34924 20.4641H19.1185L28.0737 35.854L26.8307 38.0081L14.4007 37.9797H14.203L12.2255 38.0081L13.2707 36.0241L14.316 34.0401L22.452 34.0685L16.8585 24.4037H5.69974Z" fill="white"/>
<path d="M14.4855 32.5663C14.1747 32.5663 13.8357 32.5096 13.4967 32.3962C13.1295 32.2829 12.7622 32.1128 12.4232 31.9144C11.4627 31.3192 10.7847 30.4689 10.6717 29.6754C10.6152 29.3069 10.7 28.9951 10.8977 28.7684C10.926 28.7117 10.9825 28.6834 11.0107 28.6267C11.039 28.5984 11.0672 28.5984 11.0955 28.57C11.1237 28.5417 11.1237 28.5417 11.152 28.5133C11.2085 28.485 11.2367 28.4566 11.2932 28.4283C11.8865 28.1449 12.8187 28.2016 13.7227 28.6267L13.751 28.655C13.8357 28.6834 13.9205 28.7401 14.0052 28.7684C14.09 28.7967 14.1465 28.8534 14.2312 28.9101C14.316 28.9668 14.4007 29.0235 14.4855 29.0802C14.5702 29.1369 14.6267 29.1935 14.7115 29.2502L14.768 29.2786C14.8245 29.3353 14.881 29.3636 14.9375 29.4203C14.9657 29.4486 14.9657 29.4486 14.994 29.477C15.0505 29.5053 15.0787 29.562 15.107 29.5903C15.1352 29.6187 15.1635 29.647 15.1917 29.7037C15.22 29.7604 15.2765 29.7887 15.3047 29.8454C15.333 29.8738 15.333 29.8738 15.3612 29.9021C15.3895 29.9588 15.446 29.9871 15.4742 30.0438L15.5307 30.1005C15.559 30.1572 15.5872 30.1855 15.6155 30.2422C15.6155 30.2422 15.6155 30.2422 15.6155 30.2706L15.6437 30.3272C15.7002 30.3839 15.7285 30.4689 15.7567 30.5256C15.785 30.5823 15.8132 30.6673 15.8415 30.724L15.8697 30.7524C15.8697 30.7807 15.898 30.8091 15.898 30.8091C15.898 30.8374 15.898 30.8374 15.9262 30.8657C15.9262 30.9224 15.9545 30.9508 15.9545 31.0075C15.9545 31.0641 15.9827 31.0641 15.9827 31.0925C15.9827 31.1208 15.9827 31.1492 15.9827 31.1492C15.9827 31.2059 15.9827 31.2342 15.9827 31.2625V31.3192C15.9827 31.3759 15.9827 31.4042 15.9827 31.4609C15.9827 31.4893 15.9827 31.4893 15.9827 31.5176C15.9827 31.546 15.9827 31.5743 15.9827 31.5743C15.9827 31.6026 15.9827 31.6026 15.9827 31.631V31.6593C15.9827 31.716 15.9545 31.7444 15.9262 31.801C15.898 31.8577 15.8697 31.8861 15.8415 31.9428C15.6437 32.3679 15.107 32.5663 14.4855 32.5663Z" fill="white"/>
<path d="M16.5478 30.4973C16.5478 30.4406 16.5195 30.4123 16.4913 30.3556C16.4913 30.3273 16.4913 30.3273 16.463 30.2989C16.4348 30.2139 16.4065 30.1572 16.35 30.0722C16.0393 29.477 15.5308 28.9101 14.9093 28.4567C14.8245 28.4 14.7398 28.3433 14.655 28.2866C14.5703 28.2299 14.4855 28.1732 14.4008 28.1449H14.3725C14.3443 28.1166 14.316 28.1166 14.2878 28.0882C14.2313 28.0599 14.203 28.0315 14.1465 28.0032H14.1183C14.09 28.0032 14.0618 27.9748 14.0335 27.9748C13.977 27.9465 13.9205 27.9182 13.864 27.9182L13.8075 27.8898C13.8075 27.8898 13.8075 27.8898 13.7793 27.8898C13.751 27.8898 13.7228 27.8615 13.6945 27.8615C13.638 27.8331 13.5815 27.8331 13.525 27.8048L13.4685 27.7764H13.4403C13.3838 27.7481 13.3273 27.7481 13.2708 27.7198C13.2425 27.7198 13.2143 27.6914 13.1578 27.6914H13.1295C13.073 27.6914 13.0165 27.6631 12.9883 27.6631C12.96 27.6631 12.9035 27.6631 12.8753 27.6347H12.847C12.8188 27.6347 12.7905 27.6347 12.7623 27.6064C12.734 27.6064 12.7058 27.6064 12.6775 27.6064C12.5928 27.6064 12.4798 27.5781 12.395 27.5781H12.3668C12.282 27.5781 12.1973 27.5781 12.1125 27.5781C12.0843 27.5781 12.056 27.5781 12.056 27.5781H12.0278C11.9713 27.5781 11.9148 27.5781 11.8583 27.6064C11.83 27.6064 11.8018 27.6064 11.7735 27.6347C11.717 27.6347 11.6605 27.6631 11.604 27.6631C11.5758 27.6631 11.5475 27.6914 11.5193 27.6914L13.073 25.169L16.4065 25.1973L18.1298 28.2583L16.576 30.8091C16.576 30.7807 16.576 30.7524 16.5478 30.7241C16.5478 30.6957 16.5478 30.6957 16.5478 30.6674C16.5478 30.639 16.5195 30.6107 16.5195 30.554C16.5478 30.5257 16.5478 30.4973 16.5478 30.4973Z" fill="white"/>
<path d="M34.2606 21.286C34.4301 21.0309 34.5431 20.7192 34.6279 20.3507C34.7126 19.9823 34.7691 19.5855 34.7691 19.1887C34.7691 18.055 34.4019 17.0347 33.7804 16.5245C33.4979 16.2978 33.1871 16.1844 32.8764 16.2411C32.8199 16.2411 32.7634 16.2694 32.7069 16.2694C32.6786 16.2694 32.6504 16.2978 32.6221 16.2978C32.5939 16.2978 32.5656 16.3261 32.5374 16.3261C32.4809 16.3544 32.4244 16.3828 32.3961 16.4111C31.8311 16.7796 31.4074 17.6015 31.2944 18.5935V18.6218C31.2944 18.7069 31.2661 18.7919 31.2661 18.9053C31.2661 18.9903 31.2661 19.0753 31.2661 19.1603C31.2661 19.2737 31.2661 19.3587 31.2661 19.4721C31.2661 19.5571 31.2661 19.6422 31.2944 19.7272V19.7839C31.2944 19.8406 31.3226 19.9256 31.3226 19.9823C31.3226 20.0106 31.3226 20.039 31.3226 20.0673C31.3226 20.124 31.3509 20.1807 31.3509 20.2374C31.3509 20.294 31.3791 20.3224 31.3791 20.3791C31.4074 20.4358 31.4074 20.4924 31.4356 20.5491C31.4356 20.5775 31.4639 20.6058 31.4639 20.6341C31.4921 20.6908 31.4921 20.7475 31.5204 20.8042L31.5486 20.8892C31.5769 20.9459 31.6051 20.9743 31.6051 21.0309C31.6051 21.0309 31.6051 21.0309 31.6051 21.0593L31.6334 21.116C31.6616 21.201 31.7181 21.2577 31.7464 21.3144C31.7746 21.3711 31.8311 21.4277 31.8594 21.4844L31.8876 21.5128C31.9159 21.5411 31.9159 21.5411 31.9441 21.5694C31.9724 21.5978 31.9724 21.5978 31.9724 21.6261C32.0006 21.6545 32.0289 21.6828 32.0571 21.7112C32.0854 21.7395 32.1136 21.7678 32.1136 21.7678C32.1419 21.7962 32.1419 21.7962 32.1701 21.8245C32.1984 21.8529 32.2266 21.8812 32.2549 21.9096L32.3114 21.9379C32.3396 21.9662 32.3961 21.9946 32.4244 22.0229C32.4526 22.0229 32.4526 22.0229 32.4809 22.0513C32.5091 22.0513 32.5374 22.0796 32.5374 22.0796C32.5374 22.0796 32.5656 22.0796 32.5656 22.108H32.5939C32.6504 22.108 32.6786 22.1363 32.7351 22.1363C32.7916 22.1363 32.8481 22.1363 32.9046 22.1363C33.4979 22.1646 33.9216 21.8245 34.2606 21.286Z" fill="white"/>
<path d="M31.4074 21.9663C31.3791 21.9379 31.3508 21.8812 31.3226 21.8529C31.3226 21.8246 31.2943 21.8246 31.2943 21.7962C31.2378 21.7395 31.2096 21.6545 31.1531 21.5978C30.7858 21.031 30.5881 20.2941 30.5316 19.5288C30.5316 19.4155 30.5316 19.3304 30.5316 19.2171C30.5316 19.132 30.5316 19.0187 30.5316 18.9336V18.9053C30.5316 18.877 30.5316 18.8203 30.5316 18.7919C30.5316 18.7352 30.5316 18.6786 30.5598 18.6219V18.5935C30.5598 18.5652 30.5598 18.5368 30.5598 18.5085C30.5598 18.4518 30.5881 18.3951 30.5881 18.3385V18.2818C30.5881 18.2818 30.5881 18.2818 30.5881 18.2534C30.5881 18.2251 30.5881 18.1967 30.6163 18.1684C30.6163 18.1117 30.6446 18.055 30.6446 17.9983L30.6729 17.9417V17.9133C30.6729 17.8566 30.7011 17.7999 30.7293 17.7433C30.7293 17.7149 30.7576 17.6866 30.7576 17.6582V17.6299C30.7858 17.5732 30.7859 17.5449 30.8141 17.4882C30.8141 17.4598 30.8423 17.4315 30.8706 17.3748V17.3465C30.8706 17.3181 30.8988 17.2898 30.8988 17.2614C30.9271 17.2331 30.9271 17.2048 30.9271 17.2048C30.9553 17.1197 31.0118 17.0347 31.0683 16.9497L31.0966 16.9213C31.1531 16.8363 31.1814 16.7796 31.2379 16.7229C31.2379 16.6946 31.2661 16.6946 31.2661 16.6663L31.2943 16.6379C31.3226 16.5812 31.3791 16.5529 31.4074 16.4962C31.4356 16.4679 31.4356 16.4395 31.4638 16.4395C31.5203 16.3828 31.5486 16.3545 31.5768 16.2978C31.6051 16.2695 31.6333 16.2695 31.6333 16.2411H28.6671L26.9438 19.1037L28.6388 22.1647H31.6051C31.5768 22.1363 31.5768 22.1363 31.5486 22.108L31.5204 22.0796C31.4921 22.0513 31.4639 22.023 31.4074 21.9663Z" fill="white"/>
<path d="M14.4855 5.66942C14.1747 5.66942 13.8357 5.7261 13.4967 5.83947C13.1295 5.95284 12.7622 6.12289 12.4232 6.32129C11.4627 6.91648 10.7847 7.76675 10.6717 8.56034C10.6152 8.92879 10.7 9.24056 10.8977 9.46729C10.926 9.52398 10.9825 9.55232 11.0107 9.60901C11.039 9.63735 11.0672 9.63735 11.0955 9.66569C11.1237 9.69403 11.1237 9.69403 11.152 9.72238C11.2085 9.75072 11.2367 9.77906 11.2932 9.8074C11.8865 10.0908 12.8187 10.0341 13.7227 9.60901L13.751 9.58066C13.8357 9.55232 13.9205 9.49564 14.0052 9.46729C14.09 9.43895 14.1465 9.38227 14.2312 9.32558C14.316 9.2689 14.4007 9.21221 14.4855 9.15553C14.5702 9.09884 14.6267 9.04216 14.7115 8.98548L14.768 8.95713C14.8245 8.90045 14.881 8.8721 14.9375 8.81542C14.9657 8.78708 14.9657 8.78708 14.994 8.75874C15.0505 8.73039 15.0787 8.67371 15.107 8.64537C15.1352 8.61702 15.1635 8.58868 15.1917 8.532C15.22 8.47531 15.2765 8.44697 15.3047 8.39028C15.333 8.36194 15.333 8.36194 15.3612 8.3336C15.3895 8.27691 15.446 8.24857 15.4742 8.19189L15.5307 8.1352C15.559 8.07852 15.5872 8.05018 15.6155 7.99349V7.96515L15.6437 7.90846C15.7002 7.85178 15.7285 7.76675 15.7567 7.71007C15.785 7.65338 15.8132 7.56835 15.8415 7.51167L15.8697 7.48333C15.8697 7.45499 15.898 7.42664 15.898 7.42664C15.898 7.3983 15.898 7.3983 15.9262 7.36996C15.9262 7.31327 15.9545 7.28493 15.9545 7.22825C15.9545 7.17156 15.9827 7.17156 15.9827 7.14322C15.9827 7.11488 15.9827 7.08653 15.9827 7.08653C15.9827 7.02985 15.9827 7.00151 15.9827 6.97316V6.91648C15.9827 6.8598 15.9827 6.83145 15.9827 6.77477C15.9827 6.74643 15.9827 6.74643 15.9827 6.71808C15.9827 6.68974 15.9827 6.6614 15.9827 6.6614C15.9827 6.63306 15.9827 6.63306 15.9827 6.60471V6.57637C15.9827 6.51969 15.9545 6.49135 15.9262 6.43466C15.898 6.37798 15.8697 6.34963 15.8415 6.29295C15.6437 5.86781 15.107 5.64107 14.4855 5.66942Z" fill="white"/>
<path d="M16.5478 7.73841C16.5478 7.79509 16.5195 7.82343 16.4913 7.88012C16.4913 7.90846 16.4913 7.90846 16.463 7.9368C16.4348 8.02183 16.4065 8.07852 16.35 8.16354C16.0393 8.75873 15.5308 9.32558 14.9093 9.77906C14.8245 9.83574 14.7398 9.89243 14.655 9.94911C14.5703 10.0058 14.4855 10.0625 14.4008 10.0908H14.3725C14.3443 10.1192 14.316 10.1192 14.2878 10.1475C14.2313 10.1759 14.203 10.2042 14.1465 10.2325H14.1183C14.09 10.2325 14.0618 10.2609 14.0335 10.2609C13.977 10.2892 13.9205 10.3176 13.864 10.3176L13.8075 10.3459C13.8075 10.3459 13.8075 10.3459 13.7793 10.3459C13.751 10.3459 13.7228 10.3742 13.6945 10.3742C13.638 10.4026 13.5815 10.4026 13.525 10.4309L13.4685 10.4593H13.4403C13.3838 10.4876 13.3273 10.4876 13.2708 10.516C13.2425 10.516 13.2143 10.5443 13.1578 10.5443H13.1295C13.073 10.5443 13.0165 10.5726 12.9883 10.5726C12.96 10.5726 12.9035 10.5726 12.8753 10.601H12.847C12.8188 10.601 12.7905 10.601 12.7623 10.6293C12.734 10.6293 12.7058 10.6293 12.6775 10.6293C12.5928 10.6293 12.4798 10.6577 12.395 10.6577H12.3668C12.282 10.6577 12.1973 10.6577 12.1125 10.6577C12.0843 10.6577 12.056 10.6577 12.056 10.6577H12.0278C11.9713 10.6577 11.9148 10.6577 11.8583 10.6293C11.83 10.6293 11.8018 10.6293 11.7735 10.601C11.717 10.601 11.6605 10.5726 11.604 10.5726C11.5758 10.5726 11.5475 10.5443 11.5193 10.5443L13.073 13.0668L16.4065 13.0384L18.1298 9.97746L16.576 7.42664C16.576 7.45498 16.576 7.48333 16.5478 7.51167C16.5478 7.54001 16.5478 7.54001 16.5478 7.56835C16.5478 7.5967 16.5195 7.62504 16.5195 7.68172C16.5478 7.71006 16.5478 7.73841 16.5478 7.73841Z" fill="white"/>
<path d="M22.452 4.16727L14.316 4.19561L13.073 1.84319L12.2255 0.227676L14.4007 0.25602V0.227676L26.8307 0.199335L28.0737 2.35335L19.1185 17.7433L1.34924 17.7716L0.219238 15.7876L0.445238 15.4192H0.416988L7.47949 2.94854L9.82424 6.77477L5.69974 13.8037H16.8585L22.452 4.16727Z" fill="white"/>
</svg>
