<svg width="123" height="33" viewBox="0 0 123 33" fill="none" xmlns="http://www.w3.org/2000/svg">
<path d="M61.4348 7.1563V25.7792C61.4339 25.8495 61.4055 25.9166 61.3558 25.9663C61.3061 26.016 61.239 26.0443 61.1687 26.0453H59.232C58.7874 26.0456 58.3499 25.9344 57.9595 25.7218C57.569 25.5093 57.2382 25.2021 56.9972 24.8286L48.2072 11.2427L48.5087 18.0285V25.7792C48.5078 25.8495 48.4795 25.9166 48.4298 25.9663C48.3801 26.016 48.3129 26.0443 48.2427 26.0453H45.6816C45.6113 26.0443 45.5442 26.016 45.4945 25.9663C45.4448 25.9166 45.4164 25.8495 45.4155 25.7792V7.1563C45.4164 7.08603 45.4448 7.01889 45.4945 6.9692C45.5442 6.9195 45.6113 6.89118 45.6816 6.89026H47.6077C48.0517 6.89049 48.4887 7.00157 48.8789 7.21342C49.2692 7.42526 49.6004 7.73117 49.8425 8.10341L58.6325 21.668L58.3593 14.907V7.1563C58.3593 7.08574 58.3874 7.01807 58.4373 6.96818C58.4872 6.91829 58.5548 6.89026 58.6254 6.89026H61.1865C61.2536 6.89557 61.3163 6.92583 61.3623 6.97506C61.4082 7.0243 61.4341 7.08895 61.4348 7.1563Z" fill="white"/>
<path d="M87.6093 26.0451H84.8993C84.8569 26.0447 84.8153 26.0342 84.7778 26.0145C84.7403 25.9948 84.7081 25.9664 84.6838 25.9317C84.6596 25.897 84.6439 25.857 84.6382 25.815C84.6325 25.7731 84.6368 25.7303 84.651 25.6904L91.8305 7.14554C91.8612 7.06789 91.9152 7.00166 91.9851 6.95593C92.055 6.9102 92.1373 6.88722 92.2207 6.89014H95.6154C95.6959 6.89083 95.7743 6.91551 95.8406 6.961C95.907 7.0065 95.9582 7.07075 95.9879 7.14554L103.146 25.6904C103.16 25.7303 103.165 25.7731 103.159 25.815C103.153 25.857 103.138 25.897 103.113 25.9317C103.089 25.9664 103.057 25.9948 103.019 26.0145C102.982 26.0342 102.94 26.0447 102.898 26.0451H100.188C100.134 26.0454 100.081 26.0293 100.036 25.9989C99.9906 25.9685 99.9559 25.9253 99.9359 25.8749L94.1504 10.6218C94.1318 10.5705 94.0978 10.5261 94.053 10.4947C94.0083 10.4634 93.955 10.4465 93.9003 10.4465C93.8457 10.4465 93.7924 10.4634 93.7476 10.4947C93.7029 10.5261 93.6689 10.5705 93.6503 10.6218L87.8647 25.8749C87.8445 25.9259 87.8093 25.9695 87.7636 25.9999C87.718 26.0303 87.6642 26.0461 87.6093 26.0451Z" fill="white"/>
<path d="M121.961 25.616L116.576 18.738C119.616 18.1633 121.393 16.113 121.393 12.9666C121.393 9.35203 119.042 6.89026 114.881 6.89026H107.371C107.266 6.89026 107.165 6.93212 107.09 7.00662C107.016 7.08113 106.974 7.18218 106.974 7.28755C106.974 7.62294 107.04 7.95506 107.168 8.26492C107.297 8.57479 107.485 8.85634 107.722 9.0935C107.959 9.33066 108.241 9.51879 108.551 9.64714C108.86 9.77549 109.192 9.84155 109.528 9.84155H114.568C117.083 9.84155 118.29 11.1292 118.29 12.9879C118.29 14.8467 117.112 16.1804 114.568 16.1804H107.371C107.265 16.1814 107.164 16.224 107.09 16.2991C107.016 16.3742 106.974 16.4756 106.974 16.5813V25.804C106.974 25.8746 107.002 25.9423 107.052 25.9922C107.102 26.0421 107.169 26.0701 107.24 26.0701H109.801C109.871 26.0692 109.938 26.0408 109.988 25.9911C110.038 25.9415 110.066 25.8743 110.067 25.804V18.9047H113.022L117.694 25.0024C117.944 25.3287 118.266 25.5926 118.635 25.7735C119.005 25.9545 119.411 26.0475 119.822 26.0453H121.766C121.814 26.0426 121.861 26.0267 121.901 25.9992C121.941 25.9718 121.973 25.9339 121.993 25.8897C122.013 25.8455 122.021 25.7966 122.015 25.7484C122.01 25.7001 121.991 25.6544 121.961 25.616Z" fill="white"/>
<path d="M79.5111 6.89026H67.6279C67.5338 6.89026 67.4436 6.92763 67.3771 6.99415C67.3106 7.06068 67.2732 7.1509 67.2732 7.24498C67.2732 7.93457 67.5471 8.59592 68.0348 9.08354C68.5224 9.57116 69.1837 9.8451 69.8733 9.8451H79.5111C79.5462 9.84557 79.581 9.83902 79.6135 9.82582C79.646 9.81261 79.6755 9.79304 79.7003 9.76824C79.7251 9.74344 79.7447 9.71392 79.7579 9.68142C79.7711 9.64893 79.7776 9.61412 79.7772 9.57905V7.1563C79.7772 7.08574 79.7491 7.01807 79.6992 6.96818C79.6493 6.91829 79.5817 6.89026 79.5111 6.89026ZM79.5111 23.0904H70.6431C70.5728 23.0895 70.5056 23.0612 70.456 23.0115C70.4063 22.9618 70.3779 22.8947 70.377 22.8244V18.0214C70.377 17.9509 70.405 17.8832 70.4549 17.8333C70.5048 17.7834 70.5725 17.7554 70.6431 17.7554H78.8407C78.9112 17.7554 78.9789 17.7274 79.0288 17.6775C79.0787 17.6276 79.1067 17.5599 79.1067 17.4894V15.0489C79.1067 14.9783 79.0787 14.9106 79.0288 14.8608C78.9789 14.8109 78.9112 14.7828 78.8407 14.7828H67.6705C67.5648 14.7838 67.4637 14.8264 67.3893 14.9015C67.3149 14.9765 67.2732 15.078 67.2732 15.1837V25.6338C67.2732 25.7391 67.3151 25.8402 67.3896 25.9147C67.4641 25.9892 67.5651 26.0311 67.6705 26.0311H79.5111C79.5817 26.0311 79.6493 26.003 79.6992 25.9531C79.7491 25.9033 79.7772 25.8356 79.7772 25.765V23.3423C79.7744 23.2739 79.745 23.2093 79.6953 23.1623C79.6456 23.1152 79.5795 23.0894 79.5111 23.0904Z" fill="white"/>
<path d="M26.3278 2.12627L19.6519 12.0337C19.5437 12.1767 19.4937 12.3553 19.5119 12.5337C19.5301 12.7121 19.6152 12.8769 19.75 12.9951C19.8848 13.1133 20.0594 13.1761 20.2387 13.1708C20.4179 13.1655 20.5884 13.0925 20.7161 12.9666L27.2855 7.29103C27.3234 7.2563 27.3706 7.23344 27.4214 7.22531C27.4721 7.21717 27.5241 7.22411 27.571 7.24526C27.6178 7.26641 27.6574 7.30085 27.6848 7.3443C27.7123 7.38774 27.7264 7.43829 27.7254 7.48967V25.3287C27.7248 25.3828 27.7078 25.4355 27.6765 25.4797C27.6452 25.5239 27.6012 25.5575 27.5503 25.5761C27.4994 25.5946 27.444 25.5971 27.3916 25.5833C27.3393 25.5695 27.2923 25.5401 27.2571 25.4989L7.3927 1.73253C7.07558 1.35098 6.67883 1.04342 6.23029 0.831403C5.78174 0.619386 5.29225 0.508048 4.79613 0.505194H4.10442C3.20221 0.505194 2.33696 0.863595 1.699 1.50155C1.06104 2.13951 0.702637 3.00477 0.702637 3.90698V29.0284C0.702637 29.9306 1.06104 30.7959 1.699 31.4338C2.33696 32.0718 3.20221 32.4302 4.10442 32.4302C4.68575 32.4301 5.25735 32.2811 5.7647 31.9973C6.27205 31.7135 6.6982 31.3044 7.0025 30.8091L13.6784 20.9017C13.7866 20.7587 13.8366 20.5801 13.8184 20.4017C13.8002 20.2233 13.7151 20.0584 13.5803 19.9402C13.4454 19.822 13.2708 19.7593 13.0916 19.7646C12.9124 19.7699 12.7418 19.8428 12.6142 19.9688L6.04475 25.6444C6.00688 25.6791 5.95964 25.7019 5.90889 25.7101C5.85815 25.7182 5.80614 25.7113 5.7593 25.6901C5.71247 25.669 5.67287 25.6345 5.64542 25.5911C5.61797 25.5476 5.60388 25.4971 5.6049 25.4457V7.62447C5.60543 7.57031 5.62248 7.5176 5.65378 7.47339C5.68507 7.42918 5.72911 7.39558 5.78001 7.37707C5.83091 7.35856 5.88625 7.35602 5.93863 7.36981C5.99101 7.38359 6.03793 7.41303 6.07313 7.4542L25.9376 31.2206C26.2571 31.5987 26.6553 31.9025 27.1044 32.1108C27.5535 32.3191 28.0426 32.4269 28.5377 32.4266H29.2471C29.6939 32.4266 30.1362 32.3387 30.5489 32.1677C30.9617 31.9967 31.3367 31.7462 31.6526 31.4303C31.9684 31.1144 32.219 30.7394 32.39 30.3267C32.5609 29.9139 32.6489 29.4716 32.6489 29.0249V3.90698C32.6489 3.45845 32.5602 3.01435 32.388 2.60024C32.2157 2.18612 31.9632 1.81016 31.645 1.494C31.3269 1.17783 30.9494 0.927704 30.5342 0.758005C30.119 0.588306 29.6744 0.502387 29.2258 0.505194C28.6445 0.505263 28.0729 0.654305 27.5656 0.938096C27.0582 1.22189 26.6321 1.63096 26.3278 2.12627Z" fill="white"/>
</svg>
