<svg width="40" height="40" viewBox="0 0 40 40" fill="none" xmlns="http://www.w3.org/2000/svg">
<path d="M22.1558 3.65029e-06C22.7438 3.65029e-06 23.2698 0.366004 23.4678 0.914004L24.8798 4.828C25.3858 4.954 25.8198 5.08 26.1878 5.212C26.5898 5.356 27.1078 5.574 27.7478 5.872L31.0358 4.132C31.3041 3.98982 31.6114 3.93849 31.9114 3.98573C32.2114 4.03297 32.4881 4.17623 32.6998 4.394L35.5918 7.384C35.9758 7.782 36.0838 8.364 35.8678 8.872L34.3258 12.486C34.5818 12.956 34.7858 13.358 34.9418 13.694C35.1098 14.06 35.3178 14.564 35.5658 15.214L39.1598 16.754C39.6998 16.984 40.0338 17.524 39.9978 18.102L39.7338 22.252C39.7157 22.5216 39.6189 22.78 39.4554 22.9951C39.2918 23.2102 39.0687 23.3725 38.8138 23.462L35.4098 24.672C35.3118 25.142 35.2098 25.544 35.1018 25.884C34.9276 26.4091 34.7287 26.9257 34.5058 27.432L36.2158 31.212C36.3364 31.4776 36.3689 31.7748 36.3085 32.0602C36.248 32.3456 36.0978 32.6042 35.8798 32.798L32.6278 35.702C32.4136 35.8924 32.1463 36.0129 31.8618 36.0472C31.5773 36.0815 31.2891 36.0281 31.0358 35.894L27.6838 34.118C27.1593 34.3957 26.6183 34.6408 26.0638 34.852L24.5998 35.4L23.2998 39C23.2034 39.2636 23.0296 39.492 22.8012 39.6551C22.5728 39.8182 22.3004 39.9085 22.0198 39.914L18.2198 40C17.9317 40.0076 17.6483 39.9257 17.4087 39.7656C17.1691 39.6055 16.985 39.375 16.8818 39.106L15.3498 35.052C14.8271 34.8734 14.3095 34.68 13.7978 34.472C13.3792 34.2908 12.9669 34.0954 12.5618 33.886L8.76176 35.51C8.51137 35.6168 8.23533 35.6486 7.96724 35.6013C7.69915 35.5541 7.45057 35.43 7.25176 35.244L4.43976 32.606C4.2304 32.4104 4.08782 32.154 4.03219 31.873C3.97656 31.592 4.01069 31.3006 4.12976 31.04L5.76376 27.48C5.54645 27.0583 5.34497 26.6287 5.15976 26.192C4.94356 25.6575 4.74347 25.1166 4.55976 24.57L0.979758 23.48C0.68876 23.392 0.434947 23.2105 0.257738 22.9635C0.0805287 22.7165 -0.0101592 22.4178 -0.000241624 22.114L0.139758 18.272C0.149724 18.0213 0.228032 17.7781 0.366214 17.5688C0.504397 17.3594 0.697195 17.1917 0.923758 17.084L4.67976 15.28C4.85376 14.642 5.00576 14.146 5.13976 13.784C5.32844 13.3005 5.53797 12.8254 5.76776 12.36L4.13976 8.92C4.01621 8.65877 3.97869 8.36508 4.0326 8.08118C4.0865 7.79727 4.22906 7.53777 4.43976 7.34L7.24776 4.688C7.4446 4.50235 7.6909 4.37753 7.95701 4.32856C8.22313 4.2796 8.49772 4.30857 8.74776 4.412L12.5438 5.98C12.9638 5.7 13.3438 5.474 13.6878 5.292C14.0978 5.074 14.6458 4.846 15.3358 4.6L16.6558 0.918004C16.7533 0.64854 16.9317 0.415766 17.1665 0.251466C17.4014 0.0871653 17.6812 -0.000652501 17.9678 3.65029e-06H22.1558ZM20.0478 14.038C16.7138 14.038 14.0118 16.708 14.0118 20.004C14.0118 23.3 16.7138 25.972 20.0478 25.972C23.3798 25.972 26.0818 23.3 26.0818 20.004C26.0818 16.708 23.3818 14.038 20.0478 14.038Z" fill="white"/>
</svg>
